<?xml version="1.0" encoding="utf-8"?>
<!-- Generator: Adobe Illustrator 27.9.0, SVG Export Plug-In . SVG Version: 6.00 Build 0)  -->
<svg version="1.1" id="Layer_1" xmlns="http://www.w3.org/2000/svg" xmlns:xlink="http://www.w3.org/1999/xlink" x="0px" y="0px"
	 viewBox="0 0 119.12 119.13" style="enable-background:new 0 0 119.12 119.13;" xml:space="preserve">
<style type="text/css">
	.st0{fill-rule:evenodd;clip-rule:evenodd;fill:#FFFFFF;}
</style>
<path class="st0" d="M109.29,26.74c0,0-3.61,33.19-5.93,47H90.9c-2.41-14.41-6.86-61.97-6.99-67.14V5.17C76.46,1.82,68.24,0,59.56,0
	C26.64,0,0,26.64,0,59.56s26.64,59.57,59.56,59.57s59.56-26.64,59.56-59.56C119.12,47.45,115.51,36.19,109.29,26.74 M34.31,89.41
	H22.88v-0.01V53.66h-6.51v-8.22h6.51c0-10.72,6.16-16.08,18.66-16.08v9.38c-5.89,0-7.23,1.61-7.23,6.7h7.5v8.22h-7.5V89.41z
	 M60.73,80.83c4.55,0,8.12-2.59,8.57-7.33h11.69h0c-1.25,10.19-9.55,17.07-20.17,17.07c-11.96,0-20.17-7.95-20.17-23.68
	s8.21-22.61,20.53-22.61c11.42,0,19.19,6.52,19.91,16.89H69.39c-0.62-4.56-3.93-7.24-8.3-7.24c-4.91,0-8.93,3.13-8.93,12.69
	S56.17,80.83,60.73,80.83 M103.34,90.57H90.93V78.51h12.41V90.57z"/>
</svg>
