<svg width="86" height="86" viewBox="0 0 86 86" fill="none" xmlns="http://www.w3.org/2000/svg">
<g clip-path="url(#clip0_97_41)">
<path d="M31.1789 53.4181H26.2656C24.7363 53.4181 23.4912 52.1721 23.4912 50.6438V47.902C23.4912 47.7417 23.377 47.6025 23.2071 47.5564C21.5021 47.0908 19.8605 46.4073 18.3217 45.527C18.1834 45.4463 18.0193 45.4646 17.9175 45.5663L15.9591 47.5228C15.4369 48.047 14.738 48.335 13.9978 48.335C13.2586 48.335 12.5607 48.0479 12.0356 47.5228L8.5633 44.0496C8.03722 43.5254 7.75019 42.8294 7.75019 42.0873C7.75019 41.3462 8.03722 40.6473 8.5633 40.1251L10.5188 38.1657C10.6215 38.064 10.6398 37.8998 10.5591 37.7587C9.67882 36.2227 8.9953 34.5821 8.52874 32.8771C8.48266 32.7072 8.34346 32.592 8.18314 32.592H5.44236C3.91308 32.592 2.66797 31.3478 2.66797 29.8176V24.9053C2.66797 23.376 3.91308 22.1309 5.44236 22.1309H8.18314C8.34442 22.1309 8.48266 22.0167 8.52874 21.8468C8.9953 20.1437 9.67882 18.5002 10.5591 16.9652C10.6398 16.8231 10.6215 16.6599 10.5188 16.5572L8.5633 14.6017C8.03722 14.0766 7.75019 13.3786 7.75019 12.6366C7.75019 11.8983 8.03722 11.2004 8.5633 10.6743L12.0356 7.20203C12.5607 6.67692 13.2567 6.38988 13.9978 6.38988C14.739 6.38988 15.4378 6.67692 15.962 7.20203L17.9175 9.15755C18.0202 9.26219 18.1834 9.27851 18.3217 9.19787C19.8605 8.31755 21.5021 7.63499 23.2032 7.16748C23.377 7.1214 23.4903 6.9822 23.4903 6.82188V4.08109C23.4903 2.55182 24.7354 1.3067 26.2647 1.3067H31.1779C32.7072 1.3067 33.9513 2.55182 33.9513 4.08109V6.82188C33.9513 6.98316 34.0656 7.1214 34.2355 7.16748C35.9385 7.63403 37.5821 8.31755 39.1171 9.19787C39.2563 9.27851 39.4204 9.26315 39.5251 9.15755L41.4806 7.20203C42.5644 6.11724 44.3222 6.11724 45.407 7.20203L45.7747 7.56971C46.9209 8.71595 45.1881 10.4516 44.039 9.30539C43.8134 9.10859 43.5235 8.63147 43.2172 8.93867L41.2617 10.8942C40.3785 11.7774 38.9942 11.9569 37.8969 11.3271C36.5414 10.5486 35.0918 9.9457 33.5904 9.5377C32.3568 9.20171 31.4976 8.08523 31.4976 6.81996V4.08205C31.4976 3.90637 31.3536 3.76429 31.177 3.76429H26.2637C26.088 3.76429 25.9421 3.90637 25.9421 4.08205V6.82284C25.9421 8.08619 25.08 9.20267 23.8484 9.53866C22.346 9.94954 20.8973 10.5495 19.5437 11.3281C18.4465 11.9579 17.0631 11.7793 16.1799 10.8951L14.2244 8.93963C14.1438 8.85899 14.0574 8.84363 13.9959 8.84363C13.9374 8.84363 13.8471 8.85899 13.7703 8.93963L10.2942 12.4119C10.2174 12.4887 10.202 12.579 10.202 12.6375C10.202 12.6999 10.2183 12.7892 10.2942 12.866L12.2497 14.8225C13.1367 15.7047 13.3153 17.09 12.6855 18.1863C11.907 19.5428 11.3041 20.9924 10.8961 22.4938C10.5601 23.7264 9.4417 24.5847 8.18026 24.5847H5.43948C5.2638 24.5847 5.11788 24.7306 5.11788 24.9063V29.8186C5.11788 29.9943 5.26284 30.1402 5.43948 30.1402H8.18026C9.4417 30.1402 10.5601 30.9994 10.8961 32.233C11.3041 33.7373 11.907 35.1859 12.6855 36.5395C13.3153 37.6368 13.1367 39.0211 12.2497 39.9043L10.298 41.8598C10.2174 41.9366 10.202 42.0268 10.202 42.0883C10.202 42.1468 10.2212 42.2371 10.298 42.3139L13.7703 45.7862C13.897 45.9129 14.0977 45.9129 14.2244 45.7862L16.1799 43.8326C17.0631 42.9465 18.4474 42.767 19.5437 43.3977C20.9002 44.1763 22.346 44.7791 23.8512 45.1871C25.0848 45.5231 25.9431 46.6415 25.9431 47.9059V50.6438C25.9431 50.8194 26.088 50.9644 26.2647 50.9644H31.1779C31.3536 50.9644 31.4986 50.8194 31.4986 50.6438V47.9059C31.4986 46.6415 32.3616 45.5241 33.5913 45.1871C35.1609 44.7609 35.8032 47.1302 34.2365 47.5564C34.0665 47.6025 33.9523 47.7417 33.9523 47.9059V50.6438C33.9523 52.173 32.7082 53.4181 31.1789 53.4181Z" fill="#4280EB"/>
<path d="M17.1543 27.3629C17.1543 19.2461 25.3143 13.6849 32.8349 16.5486C34.3478 17.1265 33.48 19.4218 31.9603 18.8439C26.0256 16.5793 19.608 20.9857 19.608 27.3619C19.608 32.5498 23.9779 36.7699 29.2666 36.4579C30.8822 36.3619 31.0339 38.8118 29.4125 38.9078C22.7424 39.3005 17.1553 33.983 17.1553 27.3619L17.1543 27.3629Z" fill="#4280EB"/>
<path d="M79.8046 80.0907C79.8046 81.4961 78.6642 82.6366 77.2587 82.6366H72.0709V78.0075C72.0709 76.3822 69.6172 76.3822 69.6172 78.0075V82.6366H51.3292V76.4542C51.3292 74.6158 51.888 72.8485 52.9478 71.3432C54.5328 69.091 61.0588 59.6735 62.9961 56.8338C71.804 58.6079 70.7442 58.2392 72.1784 58.7164C71.9999 59.4728 69.9349 65.0831 69.6508 73.0453C69.5922 74.6744 72.045 74.7512 72.1016 73.1355C72.3791 65.4296 74.2703 60.4703 74.468 59.6303C78.1323 61.3852 79.8046 63.9282 79.8046 67.605V80.0907ZM50.1033 71.3221C49.8595 70.843 49.5811 70.3803 49.2662 69.932C48.3245 68.5947 47.1043 66.837 45.8275 64.9947C46.2048 64.9112 46.5744 64.7663 46.9219 64.5589L50.1033 62.6485L53.2857 64.5589C53.6323 64.7653 54.0019 64.9112 54.383 64.9947C53.1062 66.837 51.8832 68.5947 50.9414 69.932C50.6294 70.3803 50.3481 70.844 50.1043 71.3221H50.1033ZM48.8774 82.6366H30.5924V74.9153C30.5924 65.6735 28.2596 59.7234 28.0282 58.7164C29.4615 58.2402 28.3997 58.6079 37.2115 56.8338C39.745 60.5135 44.4758 67.3822 47.2589 71.3432C48.3187 72.8475 48.8784 74.6158 48.8784 76.4542V82.6366H48.8774ZM28.1357 82.6366H22.9508C21.5415 82.6366 20.402 81.4961 20.402 80.0907V67.6088C20.402 63.9291 22.0734 61.3861 25.7377 59.6312C25.8855 60.2831 28.1357 66.3886 28.1357 74.9163V82.6375V82.6366ZM42.2957 55.846C43.0934 58.2565 45.7075 60.1746 47.5977 61.2901C45.6547 62.3317 45.793 62.6427 44.9098 62.5381C44.3635 62.4738 43.8682 62.1675 43.5533 61.7144C42.0864 59.588 40.7299 57.6172 39.84 56.3221L42.2957 55.846ZM38.641 39.5299C38.6285 38.8627 38.0823 38.328 37.4151 38.328C37.2106 38.2781 35.4778 38.6496 35.4778 37.2585V35.0131H64.7337V37.2585C64.7337 38.6457 62.9538 38.2905 62.7935 38.328C62.1263 38.328 61.583 38.8617 61.5666 39.5299C61.5014 42.598 60.1977 45.4463 57.9887 47.35C53.3011 51.3849 46.9065 51.3849 42.2189 47.35C40.0128 45.4463 38.7091 42.598 38.641 39.5299ZM34.3498 30.7795H65.8588C67.0357 30.7795 67.0357 32.5565 65.8588 32.5565H34.3498C33.1728 32.5565 33.1757 30.7795 34.3498 30.7795ZM36.0461 27.4368C36.0461 22.4045 38.8387 18.0106 42.9571 15.721V17.2599C42.9571 18.8823 45.4109 18.8852 45.4109 17.2599V14.665C46.511 14.3156 47.6755 14.1092 48.8784 14.0564V20.1274C48.8784 21.7498 51.3321 21.7527 51.3321 20.1274V14.0564C52.5369 14.1092 53.6985 14.3156 54.8015 14.665V17.2599C54.8015 18.8823 57.2543 18.8852 57.2543 17.2599V15.721C61.3737 18.0106 64.1634 22.4045 64.1634 27.4368V28.3267H36.0471V27.4368H36.0461ZM50.1033 59.8607C48.24 58.9208 44.5238 56.6044 44.5142 54.4127V54.4041V51.6729C48.0873 53.2146 52.1184 53.2175 55.6963 51.6729V54.4041C55.6963 56.5977 51.9705 58.9208 50.1043 59.8607H50.1033ZM60.3705 56.3231C59.4767 57.6201 58.1155 59.5976 56.6438 61.7269C56.0447 62.5947 54.9695 62.7061 54.55 62.4555L52.6089 61.2911C54.5001 60.1765 57.1171 58.2575 57.911 55.8469L60.3705 56.3231ZM70.5848 55.8095L58.1491 53.3903V50.3183C61.6406 47.9366 63.5308 44.5622 63.9455 40.7712C65.7561 40.6291 67.1865 39.1094 67.1865 37.2585V34.7376C70.1432 33.4522 69.7448 29.1389 66.6181 28.4122V27.4387C66.6181 18.6855 59.5209 11.5883 50.7686 11.5883H49.44C40.6867 11.5883 33.5933 18.6855 33.5933 27.4349V28.4112C30.4666 29.137 30.0644 33.4502 33.0212 34.7366V37.2576C33.0212 39.1085 34.4516 40.6281 36.265 40.7702C36.6231 44.0764 38.1744 47.1043 40.6186 49.2086C41.0851 49.6098 41.5671 49.9814 42.0614 50.3174V53.3894L29.6257 55.8085C23.0631 57.0853 17.9502 60.7832 17.9502 67.6088V80.0907C17.9502 82.8535 20.1899 85.0922 22.9518 85.0922H77.2597C80.0226 85.0922 82.2584 82.8526 82.2584 80.0907V67.6088C82.2584 60.8044 77.1762 57.0911 70.5858 55.8085L70.5848 55.8095Z" fill="#4280EB"/>
</g>
<defs>
<clipPath id="clip0_97_41">
<rect width="85.3417" height="85.9842" fill="white"/>
</clipPath>
</defs>
</svg>
