<svg width="86" height="86" viewBox="0 0 86 86" fill="none" xmlns="http://www.w3.org/2000/svg">
<path d="M42.4615 41.9596C43.146 41.9596 43.7028 42.5164 43.7028 43.2009C43.7028 43.8844 43.146 44.4412 42.4615 44.4412C41.778 44.4412 41.2212 43.8844 41.2212 43.2009C41.2212 42.5164 41.778 41.9596 42.4615 41.9596Z" fill="#4280EB"/>
<path d="M42.4615 41.9596C43.146 41.9596 43.7028 42.5164 43.7028 43.2009C43.7028 43.8844 43.146 44.4412 42.4615 44.4412C41.778 44.4412 41.2202 43.8844 41.2202 43.2009C41.2202 42.5164 41.778 41.9596 42.4615 41.9596Z" fill="#4280EB"/>
<path d="M71.0051 79.1892V64.2978C75.1139 64.2978 78.4509 67.6357 78.4509 71.7435C78.4509 75.8485 75.1139 79.1892 71.0051 79.1892ZM31.2911 71.7435C31.2911 67.6357 34.6319 64.2978 38.7368 64.2978H68.5235V66.7794H43.6625C42.6286 66.0095 41.3624 65.5381 39.9781 65.5381C36.5576 65.5381 33.7736 68.3221 33.7736 71.7426C33.7736 75.164 36.5576 77.947 39.9781 77.947C42.3483 77.947 44.3854 76.5992 45.4289 74.6456L45.4645 74.7435C46.1038 76.6616 47.8894 77.947 49.9092 77.947C51.3982 77.947 52.7643 77.2414 53.6321 76.1019C54.5009 77.2414 55.8631 77.947 57.355 77.947C58.8478 77.947 60.21 77.2414 61.0778 76.1019C61.9466 77.2414 63.3089 77.947 64.8007 77.947C66.2935 77.947 67.6557 77.2414 68.5245 76.1019V79.1883H38.7378C34.6328 79.1883 31.292 75.8475 31.292 71.7426L31.2911 71.7435ZM43.7 59.3346H66.0372V61.8162H43.7V59.3346ZM33.7727 55.7999C33.7727 55.7423 33.7794 55.6857 33.788 55.6271L34.412 51.885H43.7V56.8521H34.8267C34.2469 56.8521 33.7727 56.3788 33.7727 55.7999ZM30.9887 31.6301C27.6354 27.1555 23.0946 23.7543 17.8598 21.7911C16.9852 21.4628 16.3996 20.617 16.3996 19.6849V19.3892C16.3996 18.05 17.59 16.9806 18.9484 17.1581L21.7746 17.5364C30.1775 18.6567 37.4226 24.2698 40.6693 32.0304H37.3055C36.0891 32.0304 35.0581 32.9021 34.8584 34.105L34.4927 36.3005L30.9896 31.6301H30.9887ZM22.3938 71.7445H23.8454V73.6059L22.1087 74.9077C21.357 75.4741 20.5151 75.9099 19.6262 76.2161L15.3945 51.8898H16.6108L19.9554 69.7218C20.1743 70.893 21.2034 71.7445 22.3948 71.7445H22.3938ZM9.38014 72.9377L8.91838 72.2888C7.31807 70.0491 6.47135 67.4082 6.47135 64.653C6.47135 61.5186 7.59551 58.4821 9.63454 56.1033L12.9379 52.2498L17.182 76.6702C17.0265 76.6808 16.8671 76.7096 16.7078 76.7096C13.8067 76.7096 11.0669 75.2993 9.38014 72.9387V72.9377ZM6.47135 50.0025C6.47135 49.6751 6.73919 49.4044 7.06655 49.4044H11.3779L11.4134 50.2127L8.8579 53.1935L6.60191 50.375C6.51647 50.2694 6.47135 50.1359 6.47135 50.0025ZM10.3632 27.0672L11.2627 46.9219H8.95294V27.0672H10.3632ZM6.47135 24.5847V21.8132L10.2259 24.0663L10.2489 24.5847H6.47135ZM6.47135 17.1389C6.47135 11.666 10.9267 7.21067 16.3996 7.21067V15.2458C14.9356 16.0542 13.9171 17.6074 13.9171 19.3882V19.681C13.9171 21.4253 14.8953 23.018 16.3996 23.8397V49.4034H13.8643L12.7056 23.9511C12.6681 23.1178 12.2198 22.3661 11.5036 21.937L6.47231 18.9169V17.138L6.47135 17.1389ZM26.7916 13.8778L25.9794 15.9082C24.717 15.5358 23.4239 15.2526 22.101 15.074L19.2748 14.6986C19.1414 14.6794 19.0147 14.6958 18.8812 14.69V10.3623L26.7916 13.8788V13.8778ZM38.7368 22.3517C38.7368 22.8768 38.6533 23.3952 38.4891 23.8916L38.4786 23.9232C35.7167 20.7697 32.2367 18.2909 28.3257 16.7252L29.061 14.8858L35.8443 17.8993C37.604 18.6817 38.7368 20.4289 38.7368 22.3508V22.3517ZM56.1127 29.5488C57.4807 29.5488 58.5953 30.6624 58.5953 32.0314V36.9945H56.1127V34.513C56.1127 33.145 55.0001 32.0314 53.6311 32.0314C53.6311 30.6624 54.7438 29.5488 56.1127 29.5488ZM71.0042 44.4403H63.5585V41.9587H71.0042V44.4403ZM61.0769 44.4403H56.1127V39.4771H61.0769V44.4403ZM53.6311 44.4403H46.1854V39.4771H53.6311V44.4403ZM46.1854 54.3714H53.6311V56.853H46.1854V54.3714ZM36.4799 39.4761H43.699V49.4044H34.8258L36.4799 39.4761ZM53.6311 51.8889H46.1854V46.9257H53.6311V51.8889ZM53.6311 36.9936H36.8907L37.3045 34.512H53.6311V36.9936ZM75.9683 50.0745L68.0647 56.8521H56.1127V46.9219H75.9683V50.0754V50.0745ZM71.8759 56.8521L75.9683 53.3423V56.8521H71.8759ZM66.7495 74.2261C66.3837 74.9701 65.6455 75.4673 64.7988 75.4673C63.953 75.4673 63.2138 74.9701 62.8452 74.2261H66.7495ZM59.3038 74.2261C58.938 74.9701 58.1998 75.4673 57.353 75.4673C56.5034 75.4673 55.7681 74.9701 55.3995 74.2261H59.3038ZM51.858 74.2261C51.4923 74.9701 50.754 75.4673 49.9073 75.4673C49.0577 75.4673 48.3224 74.9701 47.9537 74.2261H51.858ZM68.5216 71.7445H46.1845C46.1845 70.8594 45.9896 70.0232 45.6555 69.2629H68.5216V71.7445ZM43.699 71.7445C43.699 73.7969 42.0315 75.4673 39.9762 75.4673C37.9237 75.4673 36.2523 73.7969 36.2523 71.7445C36.2523 69.693 37.9237 68.0216 39.9762 68.0216C42.0315 68.0216 43.699 69.692 43.699 71.7445ZM71.0032 61.8172H68.5216V59.3356H75.9674C77.3354 59.3356 78.4489 58.222 78.4489 56.853V46.9228C78.4489 45.5548 77.3363 44.4412 75.9674 44.4412H73.4848V41.9596C73.4848 40.5916 72.3712 39.4781 71.0032 39.4781H63.5575C63.5575 38.1101 62.4449 36.9955 61.0759 36.9955V32.0323C61.0759 29.2954 58.8487 27.0691 56.1118 27.0691C53.3719 27.0691 51.1486 29.2963 51.1486 32.0323H43.3217C42.5518 29.9741 41.5458 28.0291 40.317 26.257L40.843 24.6788C41.0907 23.9309 41.2184 23.1485 41.2184 22.3536C41.2184 19.4516 39.5067 16.8145 36.8533 15.6337L18.8822 7.64651V7.21355C18.8822 5.84556 17.7676 4.73196 16.3996 4.73196C9.55486 4.73196 3.99072 10.2971 3.99072 17.1409V18.9197V24.5866C3.99072 25.9555 5.10432 27.0691 6.47231 27.0691V46.9881C5.06016 47.2636 3.99072 48.5087 3.99072 50.0044C3.99072 50.7004 4.2288 51.382 4.6656 51.9292L7.23647 55.1461C5.1456 57.8668 3.99168 61.2076 3.99168 64.6539C3.99168 67.9304 4.99776 71.0686 6.89951 73.7345L7.36127 74.3806C9.51262 77.394 13.0089 79.1912 16.7087 79.1912C19.1779 79.1912 21.6258 78.3771 23.6015 76.8939L25.3324 75.5921C25.9554 75.1275 26.3279 74.3835 26.3279 73.6069V71.7454C26.3279 70.3774 25.2143 69.2638 23.8454 69.2638H22.391L18.8812 50.5314V24.913C22.8738 26.7687 26.3461 29.5747 29.0053 33.1162L33.9282 39.6835L31.342 55.221C31.3093 55.4121 31.2901 55.606 31.2901 55.8009C31.2901 57.7506 32.8751 59.3356 34.8258 59.3356H41.2174V61.8172H38.7358C33.2629 61.8172 28.8076 66.2715 28.8076 71.7445C28.8076 77.2174 33.2629 81.6727 38.7358 81.6727H71.0042C76.4771 81.6727 80.9325 77.2174 80.9325 71.7445C80.9325 66.2715 76.4771 61.8172 71.0042 61.8172H71.0032Z" fill="#4280EB"/>
</svg>
