<svg width="86" height="86" viewBox="0 0 86 86" fill="none" xmlns="http://www.w3.org/2000/svg">
<path d="M67.575 46.487H57.6669C55.2074 46.487 52.8218 45.7881 50.7636 44.4662C50.2442 44.1359 49.5588 44.2857 49.2286 44.8022C48.8964 45.3187 49.0462 46.007 49.5617 46.3372C51.9809 47.8876 54.7821 48.7094 57.6669 48.7094H67.575C68.6099 48.7094 69.5469 48.1766 70.0758 47.2867C70.6086 46.3967 70.6297 45.3206 70.1382 44.4095L69.7811 43.7491C67.3811 39.2995 63.9338 35.4057 59.8106 32.4902C55.721 29.5959 50.9489 27.6471 46.0097 26.8522C45.1687 26.7178 44.3143 26.9559 43.6644 27.5098C43.0116 28.0666 42.6382 28.8749 42.6382 29.7293V33.6797C42.6382 36.8083 43.5943 39.8092 45.3953 42.3561C45.7505 42.8563 46.4446 42.9763 46.9428 42.6211C47.443 42.2668 47.563 41.5737 47.2078 41.0736C45.6708 38.9059 44.8606 36.3485 44.8606 33.6806V29.7303C44.8606 29.4519 45.0132 29.28 45.1063 29.2003C45.1966 29.1235 45.3876 29.0007 45.6554 29.0448C50.2644 29.7869 54.714 31.6022 58.528 34.3027C62.3747 37.0224 65.5878 40.6531 67.8266 44.8031L68.1837 45.4665C68.3526 45.7785 68.2297 46.0483 68.1702 46.1491C68.1097 46.2527 67.9293 46.4879 67.575 46.4879V46.487Z" fill="#4280EB"/>
<path d="M15.3051 31.8797H17.0311L11.972 38.9616H10.0443L15.3051 31.8797ZM37.1709 32.0602V38.7821C37.1709 38.88 37.0922 38.9596 36.9904 38.9596H30.3012L35.3603 31.8806H36.9904C37.0922 31.8806 37.1709 31.9622 37.1709 32.0611V32.0602ZM32.6301 31.8797L27.5709 38.9616H14.7012L19.7575 31.8797H32.6301ZM5.9403 38.9616C5.32591 38.9616 4.82959 39.4589 4.82959 40.0694C4.82959 40.6838 5.32591 41.1811 5.9403 41.1811H36.9904C38.3142 41.1811 39.3904 40.102 39.3904 38.7811V32.0592C39.3904 30.7354 38.3142 29.6592 36.9904 29.6592H5.9403C5.32591 29.6592 4.82959 30.1555 4.82959 30.767C4.82959 31.3814 5.32591 31.8778 5.9403 31.8778H12.5384L7.27758 38.9568H5.9403V38.9596V38.9616Z" fill="#4280EB"/>
<path d="M5.94126 24.7997H42.711C43.7219 24.7997 44.7395 24.8458 45.7331 24.9418C50.6473 25.4036 55.4694 27.0163 59.6761 29.6131C63.8885 32.2118 67.4981 35.8013 70.116 39.9993C70.3263 40.3372 70.6891 40.5235 71.0578 40.5235C71.2594 40.5235 71.4648 40.4688 71.6453 40.3545C72.1666 40.0291 72.325 39.3446 71.9995 38.8262C69.2011 34.3402 65.3439 30.5021 60.8415 27.7248C56.3449 24.9514 51.1935 23.2224 45.9404 22.7309C45.1187 22.6551 44.2806 22.6052 43.4445 22.5888C42.2022 20.0554 39.5978 18.4004 36.736 18.4004H23.2634C22.649 18.4004 22.1527 18.8996 22.1527 19.5111C22.1527 20.1255 22.649 20.6218 23.2634 20.6218H36.736C38.3478 20.6218 39.8435 21.3668 40.8208 22.5792H5.9403C5.32591 22.5792 4.82959 23.0756 4.82959 23.688C4.82959 24.3015 5.32591 24.7988 5.9403 24.7988L5.94126 24.7997Z" fill="#4280EB"/>
<path d="M5.94128 20.6209H17.6158C18.2302 20.6209 18.7265 20.1245 18.7265 19.5101C18.7265 18.8986 18.2292 18.4023 17.6158 18.4023H5.94128C5.32688 18.4023 4.83057 18.8986 4.83057 19.5101C4.83057 20.1245 5.32688 20.6209 5.94128 20.6209Z" fill="#4280EB"/>
<path d="M5.94128 54.0498H68.6991C69.3135 54.0498 69.8108 53.5525 69.8108 52.9381C69.8108 52.3266 69.3135 51.8274 68.6991 51.8274H5.94128C5.32688 51.8274 4.83057 52.3276 4.83057 52.9381C4.83057 53.5525 5.32688 54.0498 5.94128 54.0498Z" fill="#4280EB"/>
<path d="M5.94128 58.3525H68.6991C69.3135 58.3525 69.8108 57.8562 69.8108 57.2418C69.8108 56.6303 69.3135 56.134 68.6991 56.134H5.94128C5.32688 56.134 4.83057 56.6303 4.83057 57.2418C4.83057 57.8562 5.32688 58.3525 5.94128 58.3525Z" fill="#4280EB"/>
<path d="M14.3547 63.6133H21.9992C21.2974 64.8037 20.0581 65.6245 18.6517 65.7781H17.7013C16.293 65.6255 15.0555 64.8037 14.3538 63.6133H14.3547ZM45.8359 65.0523C46.0077 65.3087 46.193 65.5515 46.3984 65.7781H45.2762C45.4778 65.5515 45.6659 65.3087 45.8359 65.0523ZM34.7767 65.0735C34.9428 65.3192 35.1262 65.5563 35.323 65.7771H34.2276C34.4273 65.5563 34.6097 65.3182 34.7767 65.0735ZM24.2763 65.7771H23.1541C23.3566 65.5506 23.5448 65.3077 23.7147 65.0514C23.8865 65.3077 24.0718 65.5506 24.2763 65.7771ZM28.7758 65.7771C27.3694 65.6245 26.131 64.8027 25.4321 63.6123H33.0737C32.3719 64.8027 31.1355 65.6235 29.7262 65.7771H28.7758ZM39.8244 65.7771C38.418 65.6245 37.1796 64.8027 36.4798 63.6123H44.1223C43.4205 64.8027 42.184 65.6235 40.7748 65.7771H39.8244ZM51.8512 65.7771H50.9008C49.4925 65.6245 48.2551 64.8027 47.5533 63.6123H55.1977C54.496 64.8027 53.2566 65.6235 51.8502 65.7771H51.8512ZM76.9964 52.6098L77.174 52.942C78.1426 54.7381 78.0888 56.8434 77.0645 58.5714C75.6783 58.2748 74.6617 57.0565 74.6617 55.582C74.6617 54.1593 75.662 52.9391 76.9964 52.6098ZM78.9807 65.7771H56.3536C56.9075 65.1522 57.3501 64.4207 57.6361 63.6123H72.1311C74.6732 63.6123 76.9964 62.4459 78.5064 60.4127C80.3736 57.9004 80.6108 54.6335 79.1285 51.887L74.9813 44.1983C74.6895 43.6617 74.0146 43.4591 73.477 43.7481C72.9365 44.0409 72.7349 44.7148 73.0268 45.2524L75.9183 50.615C73.8754 51.3465 72.4431 53.2847 72.4431 55.5839C72.4431 57.6978 73.6556 59.5045 75.4354 60.3512C74.485 61.0232 73.3445 61.3938 72.1321 61.3938H5.94229C5.33077 61.3938 4.8335 61.8911 4.8335 62.5035C4.8335 63.117 5.33077 63.6143 5.94229 63.6143H11.9163C12.2043 64.4226 12.644 65.1541 13.2018 65.7791H5.94229C5.33077 65.7791 4.8335 66.2763 4.8335 66.8907C4.8335 67.5022 5.33077 68.0014 5.94229 68.0014H78.9816C79.596 68.0014 80.0924 67.5013 80.0924 66.8907C80.0924 66.2763 79.596 65.7791 78.9816 65.7791L78.9807 65.7771Z" fill="#4280EB"/>
</svg>
