<svg width="86" height="86" viewBox="0 0 86 86" fill="none" xmlns="http://www.w3.org/2000/svg">
<path d="M77.0088 73.1605H72.2712V54.8178H77.0088V73.1605ZM67.6863 75.4529C67.6863 76.7172 66.6571 77.7464 65.3899 77.7464C64.1256 77.7464 63.0965 76.7172 63.0965 75.4529V52.5244C63.0965 51.261 64.1256 50.2319 65.3899 50.2319C66.6571 50.2319 67.6863 51.261 67.6863 52.5244V75.4529ZM58.5125 73.1605H58.5087C58.0479 73.1605 57.5957 73.2997 57.2117 73.5608C53.2786 76.2612 48.0419 77.7454 42.4614 77.7454C36.8848 77.7454 31.6442 76.2612 27.7111 73.5608C27.33 73.2997 26.8788 73.1605 26.416 73.1605H26.4132V54.8178H26.416C26.8778 54.8178 27.33 54.6777 27.7111 54.4156C29.5245 53.1733 31.6269 52.1807 33.9606 51.4684C34.9254 51.1727 35.584 50.2828 35.584 49.2738V45.647H49.3427V49.2738C49.3427 50.2828 50.0012 51.1727 50.9631 51.4684C53.2998 52.1817 55.4022 53.1733 57.2117 54.4156C57.5957 54.6777 58.0469 54.8178 58.5087 54.8178H58.5125V73.1605ZM33.2915 36.4733H51.6351C52.8994 36.4733 53.9276 37.5024 53.9276 38.7657C53.9276 40.03 52.8994 41.0592 51.6351 41.0592H33.2915C32.0272 41.0592 30.9981 40.03 30.9981 38.7657C30.9981 37.5024 32.0272 36.4733 33.2915 36.4733ZM19.5329 13.2394C18.2686 13.2394 17.2394 12.2103 17.2394 10.946C17.2394 9.68266 18.2686 8.65355 19.5329 8.65355H65.3909C66.6581 8.65355 67.6872 9.68266 67.6872 10.946C67.6872 12.2103 66.6581 13.2394 65.3909 13.2394H19.5329ZM44.7539 31.8893H40.1689V26.9981H44.7539V31.8893ZM49.3427 20.1169C49.3427 21.384 48.3135 22.4132 47.0502 22.4132H37.8755C36.6122 22.4132 35.583 21.384 35.583 20.1169V17.8244H49.3417V20.1169H49.3427ZM21.8253 75.4539C21.8253 76.7182 20.8001 77.7473 19.5329 77.7473C18.2686 77.7473 17.2394 76.7182 17.2394 75.4539V52.5254C17.2394 51.262 18.2686 50.2329 19.5329 50.2329C20.8001 50.2329 21.8253 51.262 21.8253 52.5254V75.4539ZM12.6555 73.1614H7.91788V54.8188H12.6555V73.1614ZM79.3022 50.2329H71.8776C70.9301 47.5631 68.3822 45.6479 65.3909 45.6479C62.4591 45.6479 59.9496 47.4911 58.9618 50.0831C57.4239 49.1183 55.7391 48.2937 53.9276 47.6275V45.2505C56.5973 44.3059 58.5125 41.7552 58.5125 38.7667C58.5125 34.9737 55.429 31.8902 51.6351 31.8902H49.3427V26.6045C52.0086 25.657 53.9276 23.1092 53.9276 20.1178V17.8253H65.3909C69.1848 17.8253 72.2722 14.7418 72.2722 10.9479C72.2722 7.15403 69.1848 4.07053 65.3909 4.07053H19.5329C15.739 4.07053 12.6545 7.15403 12.6545 10.9479C12.6545 14.7418 15.738 17.8253 19.5329 17.8253H30.9981V20.1178C30.9981 23.1101 32.9142 25.657 35.583 26.6045V31.8902H33.2906C29.4967 31.8902 26.4132 34.9737 26.4132 38.7667C26.4132 41.7561 28.3293 44.3059 30.9981 45.2505V47.6275C29.1885 48.2937 27.5028 49.1193 25.962 50.0831C24.977 47.4911 22.4666 45.6479 19.5329 45.6479C16.5434 45.6479 13.9966 47.5622 13.0491 50.2329H5.62445C4.35822 50.2329 3.3291 51.2591 3.3291 52.5254V75.4539C3.3291 76.7211 4.35822 77.7473 5.62445 77.7473H13.0491C13.9966 80.4161 16.5444 82.3323 19.5329 82.3323C22.4676 82.3323 24.9732 80.4891 25.962 77.8971C30.5325 80.7627 36.3482 82.3323 42.4614 82.3323C48.5747 82.3323 54.3884 80.7627 58.9637 77.8971C59.9487 80.4891 62.4591 82.3323 65.3899 82.3323C68.3823 82.3323 70.9291 80.4161 71.8766 77.7473H79.3012C80.5675 77.7473 81.5937 76.7211 81.5937 75.4539V52.5254C81.5937 51.2591 80.5675 50.2329 79.3012 50.2329H79.3022Z" fill="#4280EB"/>
</svg>
