<svg width="86" height="86" viewBox="0 0 86 86" fill="none" xmlns="http://www.w3.org/2000/svg">
<path d="M33.789 71.6657C26.1743 69.2984 21.0604 62.3461 21.0604 54.3647C21.0604 50.4623 22.2796 46.7462 24.5903 43.6137C24.644 43.5427 24.692 43.4639 24.7304 43.3852C25.1135 42.622 24.8015 41.6947 24.0383 41.3145C23.3471 40.968 22.5224 41.1907 22.0876 41.8012C19.3919 45.4617 17.9663 49.8057 17.9663 54.3647C17.9663 58.9794 19.4265 63.3685 22.1817 67.0539C24.8466 70.6174 28.6443 73.3025 32.8702 74.6187C33.0248 74.6667 33.1774 74.6888 33.3291 74.6888C33.9886 74.6888 34.6002 74.2635 34.8056 73.6011C35.059 72.7841 34.603 71.9192 33.788 71.6657H33.789Z" fill="#4280EB"/>
<path d="M65.9132 53.9231C65.9132 68.0686 54.4038 79.578 40.2583 79.578C26.1089 79.578 14.6005 68.0686 14.6005 53.9231C14.6005 48.3983 16.3304 43.1318 19.604 38.7005C19.6203 38.6745 19.6404 38.6467 19.6577 38.6217L40.2583 8.04204L52.4233 26.1044L48.6246 31.7415C46.889 34.104 45.9741 36.9081 45.9741 39.8496C45.9741 47.4143 52.1277 53.5698 59.6924 53.5698C61.9042 53.5698 63.997 53.0428 65.8479 52.1078C65.8901 52.7106 65.9122 53.3164 65.9122 53.9221L65.9132 53.9231ZM59.6924 20.8474L68.1941 33.4685C68.2124 33.4944 68.2306 33.5194 68.2479 33.5443C69.6034 35.3818 70.3215 37.5619 70.3215 39.8505C70.3215 45.7103 65.5513 50.4796 59.6924 50.4796C53.8316 50.4796 49.0653 45.7094 49.0653 39.8505C49.0653 37.5629 49.7814 35.3818 51.136 33.5443C51.1552 33.5222 51.1734 33.4963 51.1897 33.4714L55.5683 26.9712C55.5769 26.9597 55.5827 26.9453 55.5904 26.9338L59.6934 20.8465L59.6924 20.8474ZM73.4127 39.8505C73.4127 36.9091 72.494 34.105 70.7583 31.7424L60.9731 17.2148C60.6851 16.7895 60.207 16.5342 59.6915 16.5342C59.1788 16.5342 58.6959 16.7905 58.4089 17.2148L54.2876 23.3376L41.5389 4.41133C41.2509 3.98605 40.7699 3.72878 40.2573 3.72878C39.7418 3.72878 39.2628 3.98509 38.9757 4.41133L17.0897 36.8985C13.4379 41.8627 11.5093 47.7484 11.5093 53.9241C11.5093 69.7746 24.4039 82.6721 40.2573 82.6721C56.1078 82.6721 69.0034 69.7746 69.0034 53.9241C69.0034 52.6588 68.9189 51.3906 68.7548 50.1426C71.6098 47.6265 73.4127 43.9468 73.4127 39.8515V39.8505Z" fill="#4280EB"/>
<path d="M54.2435 39.4742C54.2435 38.7254 54.3952 38.0035 54.6966 37.3248C55.0432 36.5481 54.6909 35.6313 53.9133 35.2848C53.1328 34.9382 52.217 35.2905 51.8704 36.071C51.3943 37.1443 51.1523 38.2915 51.1523 39.4742C51.1523 42.2812 52.5443 44.8867 54.879 46.4505C55.144 46.6243 55.4426 46.7087 55.7382 46.7087C56.2365 46.7087 56.7251 46.4697 57.0237 46.0243C57.4998 45.3139 57.3078 44.3529 56.5984 43.8796C55.1248 42.8908 54.2426 41.2454 54.2426 39.4732L54.2435 39.4742Z" fill="#4280EB"/>
<path d="M39.5251 73.8065C39.1468 72.812 37.7356 72.5269 37.0032 73.3054C36.1324 74.1502 36.6028 75.6977 37.7952 75.9147C38.9779 76.1729 40.0089 74.9173 39.5251 73.8065Z" fill="#4280EB"/>
<path d="M58.8794 47.8578C59.8768 48.549 61.3024 47.7849 61.2832 46.5734C61.3053 45.3619 59.8778 44.5948 58.8794 45.2879C57.978 45.8515 57.9722 47.2943 58.8794 47.8569V47.8578Z" fill="#4280EB"/>
</svg>
