<?xml version="1.0" encoding="UTF-8"?>
<svg id="Layer_2" data-name="Layer 2" xmlns="http://www.w3.org/2000/svg" viewBox="0 0 43.2 43.27">
  <defs>
    <style>
      .cls-1 {
        fill: #4280df;
      }

      .cls-1, .cls-2 {
        stroke-width: 0px;
      }

      .cls-2 {
        fill: #22181a;
      }
    </style>
  </defs>
  <g id="Layer_1-2" data-name="Layer 1">
    <g>
      <path class="cls-2" d="m40.9,15.53H2.33c0,1.05,0,2.12,0,3.18,0,.49.13,1.13-.65,1.12-.73-.01-.67-.62-.68-1.13,0-1.01,0-2.03,0-2.92-.38-.33-.97-.66-.92-.84.09-.39.44-.8.79-1.04C7.46,9.39,14.07,4.9,20.66.39c.7-.48,1.19-.54,1.93-.03,6.63,4.56,13.3,9.07,19.95,13.62.32.22.63.64.67,1.01.02.2-.52.47-.92.8v26.01c0,1.36-.09,1.44-1.47,1.44h-19.52c-.25,0-.55.07-.75-.03-.27-.14-.47-.42-.7-.64.25-.22.48-.48.76-.64.17-.09.44-.02.66-.02,6.15,0,12.31,0,18.47,0h1.16V15.53ZM21.64,1.35C15.41,5.59,9.26,9.78,2.95,14.07h37.39c-6.35-4.32-12.5-8.51-18.69-12.73"/>
      <path class="cls-2" d="m35.32,30.72c-1.02,0-2.03-.02-3.04,0-.72.02-1.04-.24-1.03-.99.03-2.06.02-4.12,0-6.19,0-.65.27-.92.91-.92,2.12.01,4.25.01,6.38,0,.65,0,.9.32.89.94-.01,2.06-.01,4.12,0,6.19,0,.68-.26.99-.96.97-1.05-.03-2.09,0-3.14,0m2.73-6.71h-5.39v5.35h5.39v-5.35Z"/>
      <path class="cls-2" d="m35.34,40.28c-1.05,0-2.09-.01-3.14,0-.61,0-.96-.2-.95-.87.01-2.12,0-4.25,0-6.37,0-.6.3-.85.88-.85,2.13.01,4.25.01,6.38,0,.64,0,.91.29.91.93-.01,2.06-.02,4.12,0,6.18,0,.76-.33,1.01-1.04.99-1.01-.03-2.03,0-3.04,0m-2.71-1.38h5.39v-5.34h-5.39v5.34Z"/>
      <path class="cls-2" d="m25.74,32.19c1.08,0,2.15.01,3.23,0,.56,0,.83.25.83.79,0,2.19.03,4.37-.03,6.55,0,.26-.48.71-.75.71-2.18.06-4.37.06-6.55,0-.26,0-.73-.46-.74-.71-.06-2.18-.03-4.37-.04-6.55,0-.56.27-.8.82-.8,1.07.01,2.15,0,3.23,0m-2.67,6.7h5.35v-5.34h-5.35v5.34Z"/>
      <path class="cls-2" d="m25.68,25.38c-1.04,0-2.09-.01-3.13,0-.61.01-.86-.26-.86-.85.01-2.12.01-4.25,0-6.37,0-.67.32-.9.93-.89,2.09,0,4.18.01,6.27,0,.64,0,.92.29.92.92,0,2.09,0,4.18,0,6.27,0,.69-.32.95-1,.93-1.04-.03-2.09,0-3.14,0m-2.66-6.83v5.5h5.47c0-1.71.02-3.29-.02-4.88,0-.21-.31-.59-.48-.6-1.61-.05-3.22-.03-4.96-.03"/>
      <path class="cls-1" d="m20.38,26.29c2.64,0,5.11,0,7.59,0,.51,0,1.14-.07,1.14.65,0,.69-.61.68-1.14.68-2.19,0-4.38,0-6.56,0h-1.02v10.73q0,1.57-1.53,1.71c-.88,2.26-2,3.22-3.72,3.18-1.71-.04-2.78-.99-3.56-3.19h-2.14c-.53,1.99-1.73,3.29-3.94,3.16-1.67-.09-2.74-1.18-3.26-3.09-.06-.03-.11-.07-.17-.08C-.1,39.95,0,40.33,0,37.85c0-2.57.02-5.14,0-7.71-.01-1.28.56-2.14,1.67-2.76.27-.15.53-.6.54-.91.05-1.62.04-3.24.02-4.85-.01-.76.27-1.07,1.07-1.06,2.76.03,5.52.01,8.28.01,1.37,0,2.32.62,2.97,1.83,1.41,2.62,2.85,5.21,4.41,8.05.05-.47.09-.69.09-.91,0-3.36,0-6.73,0-10.09,0-.49-.12-1.14.65-1.13.72,0,.68.62.68,1.13v6.84Zm-3.74,2.72c-1.16-2.13-2.2-4.19-3.4-6.16-.29-.47-1.03-.82-1.62-.91-.92-.15-1.89-.04-2.84-.04H3.62v5.24c1.55,0,3.03,0,4.52,0,1.51,0,1.86.35,1.87,1.83,0,.88,0,1.75,0,2.6h5.12c.26-1.02-.46-2.49,1.49-2.55m-15.29,4.85h17.59c.35-1.91.02-2.34-2.39-3.12,0,.3,0,.59,0,.87-.02,1.24-.12,1.36-1.35,1.36-1.74,0-3.49,0-5.23,0-1.15,0-1.22-.07-1.22-1.26,0-1.07,0-2.13,0-3.28-.83,0-1.52,0-2.21,0-1.24,0-2.48-.03-3.71.04-.79.05-1.42.49-1.46,1.35-.06,1.32-.01,2.65-.01,4.04m.03,4.72c.67.23.99,0,1.29-.58,1.24-2.38,4.54-2.69,5.94-.44.68,1.1,1.43,1.24,2.45,1.09.33-.05.76-.28.91-.55.71-1.28,1.76-2.02,3.2-2.03,1.48-.01,2.59.72,3.27,2.06.1.19.24.37.36.55.06-.03.12-.05.18-.07v-3.29H1.37v3.26Zm6.66,1.08c.01-1.21-1.02-2.27-2.21-2.28-1.2-.01-2.23,1.03-2.24,2.25,0,1.23.99,2.26,2.21,2.28,1.19.01,2.24-1.03,2.25-2.24m4.94-.1c-.04,1.22.94,2.28,2.15,2.34,1.2.05,2.26-.95,2.3-2.18.04-1.24-.92-2.29-2.14-2.34-1.18-.05-2.26.98-2.3,2.18"/>
      <path class="cls-1" d="m17.72,8.65c.01-2.24,1.79-4.04,4.03-4.04,2.21-.01,4.06,1.81,4.09,4.02.02,2.26-1.82,4.14-4.06,4.15-2.26,0-4.07-1.83-4.06-4.12m1.32.04c0,1.53,1.26,2.78,2.78,2.75,1.45-.03,2.71-1.31,2.71-2.76,0-1.46-1.25-2.72-2.71-2.75-1.52-.02-2.77,1.22-2.77,2.75"/>
    </g>
  </g>
</svg>