<?xml version="1.0" encoding="UTF-8"?>
<svg id="Layer_2" data-name="Layer 2" xmlns="http://www.w3.org/2000/svg" viewBox="0 0 44.11 40.69">
  <defs>
    <style>
      .cls-1 {
        fill: #4f7cbe;
      }

      .cls-1, .cls-2 {
        stroke-width: 0px;
      }

      .cls-2 {
        fill: #211719;
      }
    </style>
  </defs>
  <g id="Layer_1-2" data-name="Layer 1">
    <g>
      <path class="cls-1" d="m15.45,23.16l-1.13-1.13c-.67-.67-1.34-1.33-2-2.01-.13-.13-.19-.15-.38-.11-5.3.99-10.19-2.08-11.62-7.29C-.27,10.48-.03,7.7.88,6l.29-.54,3.52,3.53c.21.21.42.42.62.63.47.48.95.96,1.44,1.41.82.74,1.92.99,2.95.68,1.02-.32,1.77-1.14,2.03-2.2.26-1.1-.04-2.09-.9-2.94l-2.06-2.06c-.83-.83-1.66-1.66-2.5-2.49-.04-.04-.12-.08-.2-.13-.05-.03-.11-.06-.16-.09l-.29-.18.24-.81.26-.09c.26-.07.52-.14.78-.21.58-.16,1.17-.33,1.78-.41,4.47-.59,8.71,1.77,10.55,5.89.87,1.95,1.08,4.03.63,6.19-.05.24-.19.49-.38.67-.97.94-1.94,1.88-2.92,2.8-.71.67-1.1,1.65-1.07,2.66.03,1.01.47,1.95,1.22,2.58l.62.54-1.88,1.73Zm-3.37-4.18c.35,0,.63.13.9.41.65.68,1.31,1.34,1.98,2l.51.51.49-.45c-.84-.79-1.34-1.91-1.38-3.11-.04-1.28.46-2.5,1.36-3.35.98-.92,1.94-1.85,2.9-2.79.07-.07.12-.16.13-.21.41-1.96.22-3.86-.57-5.63C16.73,2.6,12.88.46,8.81.99c-.55.08-1.09.23-1.66.38-.06.02-.12.03-.17.05.82.81,1.63,1.62,2.44,2.43l2.06,2.05c1.09,1.08,1.48,2.39,1.15,3.8-.33,1.38-1.32,2.45-2.64,2.86-1.34.41-2.77.09-3.83-.87-.52-.47-1.01-.97-1.48-1.45-.2-.21-.41-.42-.62-.62l-2.62-2.63c-.59,1.52-.69,3.67-.23,5.38,1.3,4.74,5.75,7.52,10.57,6.63.11-.02.21-.03.31-.03"/>
      <path class="cls-1" d="m35.07,40.69c-1.29,0-2.47-.46-3.44-1.35-.7-.64-1.36-1.32-1.99-1.98-.27-.28-.53-.55-.8-.82l-.23-.24.15-.29c.13-.25.27-.49.41-.73.28-.49.55-.95.68-1.43.35-1.3-.06-2.41-1.21-3.28-.35-.27-.51-.56-.53-.99-.08-1.33-.7-2.26-1.88-2.84-.31-.15-.58-.5-.65-.82-.36-1.66-1.56-2.65-3.22-2.65-.03,0-.06,0-.09,0-.31,0-.69-.07-.98-.53-.11-.18-.25-.34-.39-.49l-.46-.55.93-.86c.54-.5,1.08-1,1.63-1.49.22-.2.54-.32.83-.33.8-.02,1.58-.02,2.33,0,.32.01.67.16.89.37l.79.79c3.73,3.72,7.45,7.44,11.15,11.18,1.58,1.59,2.03,3.54,1.32,5.64-.7,2.06-2.24,3.32-4.45,3.63-.27.04-.54.06-.8.06m-5.34-4.55c.19.19.38.39.57.59.62.65,1.27,1.32,1.95,1.94.96.88,2.17,1.26,3.49,1.07,1.88-.26,3.13-1.28,3.72-3.02.6-1.77.23-3.36-1.1-4.7-3.7-3.74-7.43-7.46-11.15-11.17l-.79-.79s-.18-.1-.28-.1c-.73-.03-1.49-.03-2.27,0-.08,0-.2.05-.26.1-.54.48-1.08.98-1.61,1.47l-.3.27c.12.14.25.3.36.48.05.08.06.1.23.1,2.11-.02,3.72,1.27,4.18,3.37.01.05.1.16.16.19,1.48.72,2.28,1.93,2.39,3.6.01.17.04.21.17.32,1.43,1.08,1.98,2.59,1.54,4.24-.16.59-.47,1.13-.77,1.65-.08.13-.15.27-.23.4m5.44,1.72c-.68,0-1.32-.27-1.82-.75-.51-.5-.8-1.15-.8-1.85,0-.69.26-1.34.75-1.84.5-.51,1.16-.79,1.86-.8h.02c.71,0,1.36.27,1.85.75.49.48.76,1.14.77,1.85h0c0,1.47-1.13,2.63-2.59,2.65h-.04Zm0-4.33h-.01c-.46,0-.89.19-1.22.52-.32.33-.49.75-.49,1.2,0,.45.19.88.53,1.21.33.33.79.49,1.21.49.95-.01,1.69-.78,1.69-1.74,0-.46-.18-.89-.5-1.2-.32-.31-.75-.48-1.21-.48"/>
      <path class="cls-2" d="m35.32,26.32l-.36-.49c-.07-.09-.12-.18-.17-.25-.07-.11-.13-.19-.18-.25l-2.88-2.86c-1.38-1.37-2.77-2.74-4.15-4.12-.14-.14-.26-.17-.43-.18-.57,0-1.14,0-1.71,0-.73,0-1.45,0-2.18.01-.12,0-.3.08-.41.18-.41.36-.8.73-1.2,1.11-.22.21-.43.41-.65.62-.6.56-1.34.86-2.1.82-.72-.03-1.39-.35-1.89-.9-1.03-1.13-.9-2.82.3-3.93.87-.8,1.71-1.63,2.55-2.46.61-.6,1.31-.89,2.16-.89h.02c2.7.01,5.41.01,8.11,0,.12,0,.3-.08.38-.16,1.26-1.23,2.51-2.48,3.75-3.73l1.22-1.22c.08-.08.16-.16.25-.24l.46-.44.42.4c.1.1.19.18.28.27,2.03,2.03,4.07,4.07,6.11,6.11,1.46,1.46,1.46,3.2,0,4.65l-7,7.01c-.06.06-.1.13-.17.22l-.55.72Zm-8.16-9.05c.42,0,.75.14,1.06.44,1.38,1.38,2.77,2.75,4.15,4.12l2.88,2.86s.07.07.1.11c.01-.02.03-.03.04-.05l7-7.01c1.09-1.1,1.09-2.26,0-3.36-2.04-2.04-4.07-4.08-6.11-6.12-.02-.02-.03-.03-.05-.05l-1.29,1.28c-1.25,1.25-2.5,2.5-3.76,3.73-.25.25-.66.42-1.01.42-2.71.02-5.42.02-8.13,0-.63-.04-1.09.2-1.53.63-.85.84-1.7,1.67-2.57,2.48-.84.78-.94,1.89-.25,2.65.34.38.77.58,1.25.6.51.02,1.02-.18,1.44-.57.21-.2.43-.4.64-.61.4-.39.81-.77,1.23-1.14.27-.24.65-.39.99-.4.73-.01,1.46-.01,2.2-.01.57,0,1.13,0,1.7,0h.02Z"/>
      <path class="cls-2" d="m24.89,37.72c-.44,0-.88-.13-1.28-.39-.86-.57-1.22-1.54-.99-2.53-.68.17-1.55.14-2.32-.72-.56-.62-.73-1.33-.51-2.14-.72.18-1.52.13-2.24-.6-.74-.75-.77-1.58-.61-2.23-.92.23-1.86-.09-2.44-.85-.7-.91-.67-2.12.07-2.93.8-.88,1.69-1.77,2.64-2.64.71-.65,1.82-.71,2.7-.15.73.46,1.13,1.21,1.11,2.04.9-.66,2.07-.65,2.93.08.79.66,1.04,1.69.68,2.64.96-.08,1.71.28,2.25,1.07.53.79.57,1.6.1,2.43.92.1,1.59.58,1.96,1.41.38.85.26,1.7-.35,2.45-.6.74-1.21,1.46-1.83,2.18-.51.58-1.18.89-1.86.89m-.52-4.81l-.61,1.42c-.05.13-.09.22-.13.31-.34.75-.15,1.51.48,1.93.63.42,1.42.28,1.95-.33.61-.71,1.22-1.43,1.81-2.16.39-.48.46-.97.22-1.51-.24-.54-.65-.82-1.27-.88-.14-.01-.28,0-.45.02l-1.48.1.8-.85c.95-1,.74-1.62.42-2.1-.49-.72-1.16-.86-2.24-.48l-1.24.43.97-1.51c.44-.68.34-1.47-.24-1.96-.6-.5-1.41-.46-2,.12-.15.15-.29.3-.43.46l-.46.51-.59-.41-.03-.39.08-.28c.05-.17.1-.34.14-.51.14-.63-.1-1.19-.64-1.54-.53-.33-1.2-.31-1.6.05-.94.86-1.8,1.73-2.58,2.58-.44.48-.45,1.21-.02,1.77.42.55,1.12.71,1.78.42l1.84-.82-.67,1.2c-.55.98-.54,1.62.03,2.19.55.56,1.18.56,2.24,0l1.44-.76-.83,1.4c-.56.94-.58,1.56-.06,2.14.57.63,1.21.66,2.23.09l1.17-.65Z"/>
    </g>
  </g>
</svg>