<?xml version="1.0" encoding="UTF-8"?>
<svg id="Layer_2" data-name="Layer 2" xmlns="http://www.w3.org/2000/svg" viewBox="0 0 43.2 49">
  <defs>
    <style>
      .cls-1 {
        fill: #4f7cbe;
      }

      .cls-1, .cls-2 {
        stroke-width: 0px;
      }

      .cls-2 {
        fill: #211719;
      }
    </style>
  </defs>
  <g id="Layer_1-2" data-name="Layer 1">
    <g>
      <path class="cls-2" d="m12.37,47.35h4.17v-2.08c0-2.91,0-5.82,0-8.73,0-.23,0-.46,0-.69,0-.58.14-1.2.84-1.06.29.06.67.69.67,1.07.06,3.37.03,6.74.03,10.11v1.34h7.04v-1.37c0-3.29,0-6.58,0-9.88,0-.57-.08-1.29.73-1.3.88-.01.82.74.82,1.35,0,3.29,0,6.58,0,9.88v1.33h4.16v-1.52c0-3.98,0-7.96,0-11.94,0-.23-.08-.52.03-.68.2-.3.51-.53.77-.79.24.25.6.47.67.76.12.47.05.99.05,1.48,0,3.79,0,7.58,0,11.37v1.32h4.16v-1.31c0-7.54,0-15.08.01-22.63,0-.66-.32-1.71.74-1.74,1.25-.03.77,1.11.78,1.76.05,3.36.02,6.72.02,10.09,1.64-.1,3.02-1.33,3.4-3,.13-.55.17-1.14.17-1.71.02-2.91.02-5.82,0-8.73-.01-3-1.51-4.68-4.44-5.15-.35-.06-.64-.57-.95-.86.38-.23.77-.65,1.16-.65,2.76.03,5.53,2.44,5.65,5.22.17,3.86.22,7.74,0,11.59-.17,2.86-2.18,4.4-4.93,5.1v12.1c1.14,0,2.27,0,3.4,0,.38,0,.8-.03,1.12.13.24.12.44.52.44.8,0,.2-.33.5-.56.58-.31.11-.68.04-1.03.04-13.29,0-26.57,0-39.86,0-.23,0-.5.07-.68-.02-.32-.17-.6-.44-.89-.67.29-.29.55-.79.87-.82,1.02-.11,2.06-.05,3.1-.05.3,0,.61-.03,1.02-.05.03-.34.08-.67.08-1,0-3.33-.02-6.66.02-9.99,0-.74-.13-1.12-.94-1.36C1.68,34.27.11,32.22.05,29.58-.01,26.17-.02,22.77.05,19.36c.07-3.04,2.13-5.34,5.12-5.91.3-.06.65-.16.9-.06.34.14.6.47.9.71-.26.28-.48.74-.79.81-3.6.82-4.62,2.07-4.62,5.78,0,2.83-.02,5.67,0,8.5.03,2.37,1.37,4.03,3.57,4.35v-3.52c0-2.26-.02-4.52.01-6.78.01-.61-.35-1.59.72-1.6,1.06-.01.79.95.79,1.58.01,7.5,0,15.01,0,22.51v1.59h4.17v-1.23c0-4.02,0-8.04,0-12.06,0-.34-.06-.73.07-1.02.11-.26.45-.57.69-.57.24,0,.6.31.7.56.13.34.07.75.07,1.13,0,3.98,0,7.96,0,11.94v1.28Z"/>
      <path class="cls-1" d="m11.67,0c3.1.02,5.62,2.57,5.59,5.65-.04,3.09-2.58,5.61-5.66,5.61s-5.63-2.56-5.65-5.63C5.94,2.49,8.48-.01,11.67,0m-.07,9.68c2.25,0,4.1-1.83,4.1-4.06,0-2.22-1.85-4.05-4.1-4.05s-4.1,1.82-4.1,4.05c0,2.21,1.86,4.06,4.1,4.06"/>
      <path class="cls-2" d="m31.57,0c3.13,0,5.62,2.44,5.68,5.56.06,3.09-2.57,5.71-5.69,5.7-3.08-.01-5.6-2.55-5.62-5.65C25.93,2.53,28.46,0,31.57,0m.03,1.57c-2.25,0-4.1,1.83-4.11,4.04,0,2.22,1.85,4.06,4.09,4.06,2.24,0,4.1-1.83,4.11-4.05.01-2.21-1.85-4.06-4.09-4.06"/>
      <path class="cls-2" d="m15.79,21.88c.36.4.72.66.88,1,.13.29.16.8-.01.99-.17.18-.79.24-.97.08-.89-.78-1.74-1.61-2.5-2.52-.17-.21-.03-.89.19-1.17.6-.74,1.28-1.43,2.03-2.02.29-.23.84-.14,1.27-.19-.07.43-.07.88-.22,1.29-.09.26-.38.44-.7.79h11.64c-.35-.39-.71-.65-.85-1-.13-.32-.13-.81.04-1.09.09-.15.78-.17.97,0,.86.75,1.69,1.56,2.42,2.44.18.21.06.9-.16,1.16-.63.76-1.34,1.48-2.1,2.11-.27.22-.78.14-1.18.2.05-.43.03-.88.17-1.28.08-.25.39-.44.72-.79h-11.64Z"/>
      <path class="cls-2" d="m15.78,29.92c.4.43.76.66.88.99.12.32,0,.74,0,1.11-.35-.02-.81.11-1.02-.07-.84-.72-1.65-1.5-2.34-2.36-.2-.25-.13-.97.09-1.25.59-.75,1.28-1.43,2.03-2.02.3-.24.84-.16,1.28-.22-.06.43-.06.89-.2,1.29-.09.26-.38.45-.7.79h11.63c-.34-.39-.69-.65-.86-1-.13-.29-.18-.89-.03-.98.28-.18.87-.25,1.07-.08.85.71,1.65,1.49,2.35,2.35.2.24.11.96-.11,1.25-.59.75-1.27,1.43-2.02,2.03-.29.24-.84.17-1.27.24.06-.43.07-.88.21-1.28.09-.25.38-.43.7-.78h-11.67Z"/>
      <path class="cls-2" d="m21.57,14.98c-1.37,0-2.75.06-4.12-.03-.42-.03-.81-.46-1.21-.7.38-.28.76-.78,1.15-.79,2.78-.07,5.56-.07,8.34,0,.41.01,1.12.44,1.15.74.08.77-.6.8-1.21.79-1.37-.01-2.74,0-4.12,0"/>
      <path class="cls-1" d="m21.57,47.31h-3.5v-1.34c0-3.37.02-6.74-.03-10.11,0-.38-.38-1.02-.67-1.07-.7-.14-.83.48-.84,1.06,0,.23,0,.46,0,.69,0,2.91,0,5.82,0,8.73v2.08h-4.17v-1.28c0-3.98,0-7.96,0-11.95,0-.38.06-.8-.07-1.13-.1-.25-.46-.56-.69-.56-.24,0-.58.31-.69.57-.13.29-.07.68-.07,1.02,0,4.02,0,8.04,0,12.06v1.23h-4.17v-1.59c0-7.5,0-15.01,0-22.51,0-.63.27-1.59-.79-1.58-1.07.01-.71.99-.73,1.6-.03,2.26-.01,4.52-.01,6.78v3.52c-2.2-.32-3.54-1.98-3.57-4.35-.03-2.83,0-5.67,0-8.5,0-3.71,1.03-4.96,4.62-5.78.31-.07.53-.53.79-.81-.29-.24-.56-.57-.9-.71-.25-.1-.6,0-.9.06C2.18,14.02.12,16.32.06,19.36c-.08,3.41-.07,6.82,0,10.22.05,2.64,1.63,4.69,4.16,5.43.81.24.95.62.94,1.36-.03,3.33-.01,6.66-.02,9.99,0,.33-.05.65-.08,1-.42.02-.72.04-1.02.04-1.03,0-2.07-.05-3.1.05-.31.03-.58.53-.87.82.29.23.57.51.89.67.18.1.45.02.68.02h19.93v-1.66Z"/>
    </g>
  </g>
</svg>