<?xml version="1.0" encoding="UTF-8"?>
<svg id="Layer_2" data-name="Layer 2" xmlns="http://www.w3.org/2000/svg" viewBox="0 0 43.2 41.87">
  <defs>
    <style>
      .cls-1 {
        fill: #4f7cbe;
      }

      .cls-1, .cls-2 {
        stroke-width: 0px;
      }

      .cls-2 {
        fill: #211719;
      }
    </style>
  </defs>
  <g id="Layer_1-2" data-name="Layer 1">
    <g>
      <path class="cls-1" d="m12.79,26.37v1.29c-.6,0-1.19.07-1.76-.01-.88-.13-1.57-.96-1.57-1.85-.01-2.58-.03-5.17,0-7.76.02-1.67,1.49-3.11,3.16-3.15,1.48-.03,2.97-.03,4.45,0,1.67.03,3.15,1.51,3.16,3.19.02,2.56.01,5.13,0,7.69,0,.92-.7,1.76-1.62,1.88-.56.08-1.14.02-1.73.02v-1.29c.41,0,.8,0,1.2,0,.56,0,.81-.25.82-.82,0-2.42,0-4.85,0-7.27,0-1.2-.86-2.07-2.07-2.08-1.33-.01-2.66-.01-3.99,0-1.19.01-2.07.89-2.07,2.09,0,2.4,0,4.8,0,7.21,0,.64.24.87.89.88h1.13Z"/>
      <path class="cls-1" d="m18.21,0c2.62,0,4.74,2.09,4.74,4.7,0,2.61-2.1,4.73-4.71,4.73-2.62,0-4.74-2.1-4.74-4.7C13.49,2.12,15.59,0,18.21,0m-3.37,4.71c0,1.88,1.52,3.41,3.4,3.41,1.85-.01,3.37-1.52,3.38-3.37,0-1.89-1.51-3.42-3.39-3.43-1.86,0-3.38,1.52-3.39,3.39"/>
      <polygon class="cls-1" points="17.59 2.71 18.87 2.71 18.87 4.03 20.21 4.03 20.21 5.37 17.59 5.37 17.59 2.71"/>
      <path class="cls-1" d="m10.77,40.59c-.09-.51.08-.83.57-1.08.86-.43,1.67-.95,2.51-1.44.09-.05.18-.1.33-.18,0,.95,0,1.84,0,2.73h0s1.35.03,1.35.03v-2.76c1.1.64,2.16,1.25,3.21,1.87.08.04.15.16.16.25.02.22.01.44,0,.68h1.32c0-.4-.02-.8,0-1.2.02-.31-.08-.48-.35-.64-1.37-.77-2.72-1.58-4.09-2.35-.23-.13-.3-.28-.3-.54.02-.77,0-1.54,0-2.3v-.38h4.73v-2.57c0-.99-.52-1.53-1.5-1.52-.95,0-1.91,0-2.86,0-.12,0-.23-.01-.38-.02v-8.2h-1.34v8.22h-.42c-.97,0-1.95,0-2.92,0-.84,0-1.37.56-1.38,1.41,0,.39,0,.79,0,1.19v1.51h4.72c0,.15.02.27.02.39,0,.78,0,1.56,0,2.34,0,.23-.07.35-.27.46-1.4.8-2.78,1.61-4.17,2.41-.23.13-.32.27-.3.54.02.38.01.77,0,1.17h1.32s0,0,0,0m.02-10.04h8.09v1.36h-8.09v-1.36Z"/>
      <path class="cls-2" d="m38.51,40.56v-13.55h1.3v-4.04h-7.39v-2.04h5.37v-10.78h-16.17v10.78h5.35v2.07h-5.35v1.31h16.41c.1,0,.2-.02.29,0,.07.02.17.11.17.17.02.39.01.77.01,1.21h-16.89v1.33h9.43v13.52c-3.61,0-23.78.01-24.83.02-.23,0-.19-.16-.19-.29,0-4.3,0-8.61,0-12.92,0-.1.01-.21.02-.35h2v-1.33h-4.04v-1.37h4.03v-1.32h-2.02v-.41c0-2.35,0-4.7-.01-7.04,0-.16-.08-.36-.2-.47-1.09-1.11-2.2-2.21-3.3-3.31-.08-.08-.2-.13-.29-.18,2-2,3.93-3.92,5.82-5.81,1.01,1.01,2.04,2.04,3.08,3.08-.57.57-1.14,1.2-1.78,1.75-.47.41-.68.86-.61,1.49.05.46.01.94.01,1.41h6.74c0-.65-.01-1.27,0-1.9,0-.27-.07-.46-.26-.65-1.99-1.97-3.97-3.96-5.95-5.94-.4-.4-.78-.82-1.17-1.23C5.52,6.37,2.96,8.92.34,11.54c.09.06.2.11.29.2,1.3,1.29,2.59,2.58,3.88,3.88.11.11.2.31.2.47.01,2.18.01,4.37,0,6.56,0,.1-.01.21-.02.35h-1.99v4.01h1.99v13.56H0v1.29h43.2v-1.31h-4.69Zm-15.55-29.07h13.5v8.1h-13.5v-8.1Zm8.09,11.47h-2.7v-2h2.7v2ZM12.13,9.72c.67.67,1.32,1.31,1.96,1.97.08.09.08.27.14.45h-4.09c-.08-.24-.01-.42.17-.6.61-.59,1.21-1.2,1.83-1.82m20.31,17.32h4.7v2.7h-4.7v-2.7Zm0,4.07h4.71v2.66h-4.71v-2.66Zm0,4.04h4.71v2.69h-4.71v-2.69Zm4.72,5.26c0,.06-.18.15-.28.15-.99,0-1.99,0-2.98,0h-1.46v-1.34h4.74c0,.39.01.79-.01,1.18"/>
    </g>
  </g>
</svg>