<?xml version="1.0" encoding="UTF-8"?>
<!DOCTYPE svg PUBLIC "-//W3C//DTD SVG 1.1//EN" "http://www.w3.org/Graphics/SVG/1.1/DTD/svg11.dtd">
<!-- Creator: CorelDRAW 2019 (64-Bit) -->
<svg xmlns="http://www.w3.org/2000/svg" xml:space="preserve" width="0.888976in" height="0.895669in" version="1.1" style="shape-rendering:geometricPrecision; text-rendering:geometricPrecision; image-rendering:optimizeQuality; fill-rule:evenodd; clip-rule:evenodd"
viewBox="0 0 888.98 895.67"
 xmlns:xlink="http://www.w3.org/1999/xlink"
 xmlns:xodm="http://www.corel.com/coreldraw/odm/2003">
 <defs>
  <style type="text/css">
   <![CDATA[
    .fil0 {fill:white;fill-rule:nonzero}
   ]]>
  </style>
 </defs>
 <g id="Layer_x0020_1">
  <metadata id="CorelCorpID_0Corel-Layer"/>
  <g id="_2560450123392">
   <path class="fil0" d="M324.78 556.44l-51.18 0c-15.93,0 -28.9,-12.98 -28.9,-28.9l0 -28.56c0,-1.67 -1.19,-3.12 -2.96,-3.6 -17.76,-4.85 -34.86,-11.97 -50.89,-21.14 -1.44,-0.84 -3.15,-0.65 -4.21,0.41l-20.4 20.38c-5.44,5.46 -12.72,8.46 -20.43,8.46 -7.7,0 -14.97,-2.99 -20.44,-8.46l-36.17 -36.18c-5.48,-5.46 -8.47,-12.71 -8.47,-20.44 0,-7.72 2.99,-15 8.47,-20.44l20.37 -20.41c1.07,-1.06 1.26,-2.77 0.42,-4.24 -9.17,-16 -16.29,-33.09 -21.15,-50.85 -0.48,-1.77 -1.93,-2.97 -3.6,-2.97l-28.55 0c-15.93,0 -28.9,-12.96 -28.9,-28.9l0 -51.17c0,-15.93 12.97,-28.9 28.9,-28.9l28.55 0c1.68,0 3.12,-1.19 3.6,-2.96 4.86,-17.74 11.98,-34.86 21.15,-50.85 0.84,-1.48 0.65,-3.18 -0.42,-4.25l-20.37 -20.37c-5.48,-5.47 -8.47,-12.74 -8.47,-20.47 0,-7.69 2.99,-14.96 8.47,-20.44l36.17 -36.17c5.47,-5.47 12.72,-8.46 20.44,-8.46 7.72,0 15,2.99 20.46,8.46l20.37 20.37c1.07,1.09 2.77,1.26 4.21,0.42 16.03,-9.17 33.13,-16.28 50.85,-21.15 1.81,-0.48 2.99,-1.93 2.99,-3.6l0 -28.55c0,-15.93 12.97,-28.9 28.9,-28.9l51.18 0c15.93,0 28.89,12.97 28.89,28.9l0 28.55c0,1.68 1.19,3.12 2.96,3.6 17.74,4.86 34.86,11.98 50.85,21.15 1.45,0.84 3.16,0.68 4.25,-0.42l20.37 -20.37c11.29,-11.3 29.6,-11.3 40.9,0l3.83 3.83c11.94,11.94 -6.11,30.02 -18.08,18.08 -2.35,-2.05 -5.37,-7.02 -8.56,-3.82l-20.37 20.37c-9.2,9.2 -23.62,11.07 -35.05,4.51 -14.12,-8.11 -29.22,-14.39 -44.86,-18.64 -12.85,-3.5 -21.8,-15.13 -21.8,-28.31l0 -28.52c0,-1.83 -1.5,-3.31 -3.34,-3.31l-51.18 0c-1.83,0 -3.35,1.48 -3.35,3.31l0 28.55c0,13.16 -8.98,24.79 -21.81,28.29 -15.65,4.28 -30.74,10.53 -44.84,18.64 -11.43,6.56 -25.84,4.7 -35.04,-4.51l-20.37 -20.37c-0.84,-0.84 -1.74,-1 -2.38,-1 -0.61,0 -1.55,0.16 -2.35,1l-36.21 36.17c-0.8,0.8 -0.96,1.74 -0.96,2.35 0,0.65 0.17,1.58 0.96,2.38l20.37 20.38c9.24,9.19 11.1,23.62 4.54,35.04 -8.11,14.13 -14.39,29.23 -18.64,44.87 -3.5,12.84 -15.15,21.78 -28.29,21.78l-28.55 0c-1.83,0 -3.35,1.52 -3.35,3.35l0 51.17c0,1.83 1.51,3.35 3.35,3.35l28.55 0c13.14,0 24.79,8.95 28.29,21.8 4.25,15.67 10.53,30.76 18.64,44.86 6.56,11.43 4.7,25.85 -4.54,35.05l-20.33 20.37c-0.84,0.8 -1,1.74 -1,2.38 0,0.61 0.2,1.55 1,2.35l36.17 36.17c1.32,1.32 3.41,1.32 4.73,0l20.37 -20.35c9.2,-9.23 23.62,-11.1 35.04,-4.53 14.13,8.11 29.19,14.39 44.87,18.64 12.85,3.5 21.79,15.15 21.79,28.32l0 28.52c0,1.83 1.51,3.34 3.35,3.34l51.18 0c1.83,0 3.34,-1.51 3.34,-3.34l0 -28.52c0,-13.17 8.99,-24.81 21.8,-28.32 16.35,-4.44 23.04,20.24 6.72,24.68 -1.77,0.48 -2.96,1.93 -2.96,3.64l0 28.52c0,15.93 -12.96,28.9 -28.89,28.9z"/>
   <path class="fil0" d="M178.69 285.03c0,-84.55 85,-142.48 163.34,-112.65 15.76,6.02 6.72,29.93 -9.11,23.91 -61.82,-23.59 -128.67,22.31 -128.67,88.73 0,54.04 45.52,98 100.61,94.75 16.83,-1 18.41,24.52 1.52,25.52 -69.48,4.09 -127.68,-51.3 -127.68,-120.27z"/>
   <path class="fil0" d="M831.3 834.28c0,14.64 -11.88,26.52 -26.52,26.52l-54.04 0 0 -48.22c0,-16.93 -25.56,-16.93 -25.56,0l0 48.22 -190.5 0 0 -64.4c0,-19.15 5.82,-37.56 16.86,-53.24 16.51,-23.46 84.49,-121.56 104.67,-151.14 91.75,18.48 80.71,14.64 95.65,19.61 -1.86,7.88 -23.37,66.32 -26.33,149.26 -0.61,16.97 24.94,17.77 25.53,0.94 2.89,-80.27 22.59,-131.93 24.65,-140.68 38.17,18.28 55.59,44.77 55.59,83.07l0 130.06zm-309.39 -91.34c-2.54,-4.99 -5.44,-9.81 -8.72,-14.48 -9.81,-13.93 -22.52,-32.24 -35.82,-51.43 3.93,-0.87 7.78,-2.38 11.4,-4.54l33.14 -19.9 33.15 19.9c3.61,2.15 7.46,3.67 11.43,4.54 -13.3,19.19 -26.04,37.5 -35.85,51.43 -3.25,4.67 -6.18,9.5 -8.72,14.48zm-12.77 117.86l-190.47 0 0 -80.43c0,-96.27 -24.3,-158.25 -26.71,-168.74 14.93,-4.96 3.87,-1.13 95.66,-19.61 26.39,38.33 75.67,109.88 104.66,151.14 11.04,15.67 16.87,34.09 16.87,53.24l0 64.4zm-216.06 0l-54.01 0c-14.68,0 -26.55,-11.88 -26.55,-26.52l0 -130.02c0,-38.33 17.41,-64.82 55.58,-83.1 1.54,6.79 24.98,70.39 24.98,159.22l0 80.43zm147.5 -279.07c8.31,25.11 35.54,45.09 55.23,56.71 -20.24,10.85 -18.8,14.09 -28,13 -5.69,-0.67 -10.85,-3.86 -14.13,-8.58 -15.28,-22.15 -29.41,-42.68 -38.68,-56.17l25.58 -4.96zm-38.07 -169.96c-0.13,-6.95 -5.82,-12.52 -12.77,-12.52 -2.13,-0.52 -20.18,3.35 -20.18,-11.14l0 -23.39 304.75 0 0 23.39c0,14.45 -18.54,10.75 -20.21,11.14 -6.95,0 -12.61,5.56 -12.78,12.52 -0.68,31.96 -14.26,61.63 -37.27,81.46 -48.83,42.03 -115.44,42.03 -164.27,0 -22.98,-19.83 -36.56,-49.5 -37.27,-81.46zm-44.7 -91.15l328.22 0c12.26,0 12.26,18.51 0,18.51l-328.22 0c-12.26,0 -12.23,-18.51 0,-18.51zm17.67 -34.82c0,-52.42 29.09,-98.19 71.99,-122.04l0 16.03c0,16.9 25.56,16.93 25.56,0l0 -27.03c11.46,-3.64 23.59,-5.79 36.12,-6.34l0 63.24c0,16.9 25.56,16.93 25.56,0l0 -63.24c12.55,0.55 24.65,2.7 36.14,6.34l0 27.03c0,16.9 25.55,16.93 25.55,0l0 -16.03c42.91,23.85 71.97,69.62 71.97,122.04l0 9.27 -292.88 0 0 -9.27zm146.43 337.75c-19.41,-9.79 -58.12,-33.92 -58.22,-56.75l0 -0.09 0 -28.45c37.22,16.06 79.21,16.09 116.48,0l0 28.45c0,22.85 -38.81,47.05 -58.25,56.84zm106.95 -36.85c-9.31,13.51 -23.49,34.11 -38.82,56.29 -6.24,9.04 -17.44,10.2 -21.81,7.59l-20.22 -12.13c19.7,-11.61 46.96,-31.6 55.23,-56.71l25.62 4.96zm106.4 -5.35l-129.54 -25.2 0 -32c36.37,-24.81 56.06,-59.96 60.38,-99.45 18.86,-1.48 33.76,-17.31 33.76,-36.59l0 -26.26c30.8,-13.39 26.65,-58.32 -5.92,-65.89l0 -10.14c0,-91.18 -73.93,-165.11 -165.1,-165.11l-13.84 0c-91.18,0 -165.07,73.93 -165.07,165.07l0 10.17c-32.57,7.56 -36.76,52.49 -5.96,65.89l0 26.26c0,19.28 14.9,35.11 33.79,36.59 3.73,34.44 19.89,65.98 45.35,87.9 4.86,4.18 9.88,8.05 15.03,11.55l0 32 -129.54 25.2c-68.36,13.3 -121.62,51.82 -121.62,122.92l0 130.02c0,28.78 23.33,52.1 52.1,52.1l565.71 0c28.78,0 52.07,-23.33 52.07,-52.1l0 -130.02c0,-70.88 -52.94,-109.56 -121.59,-122.92z"/>
  </g>
 </g>
</svg>
