<?xml version="1.0" encoding="UTF-8"?>
<!DOCTYPE svg PUBLIC "-//W3C//DTD SVG 1.1//EN" "http://www.w3.org/Graphics/SVG/1.1/DTD/svg11.dtd">
<!-- Creator: CorelDRAW 2019 (64-Bit) -->
<svg xmlns="http://www.w3.org/2000/svg" xml:space="preserve" width="0.888976in" height="0.895669in" version="1.1" style="shape-rendering:geometricPrecision; text-rendering:geometricPrecision; image-rendering:optimizeQuality; fill-rule:evenodd; clip-rule:evenodd"
viewBox="0 0 888.98 895.67"
 xmlns:xlink="http://www.w3.org/1999/xlink"
 xmlns:xodm="http://www.corel.com/coreldraw/odm/2003">
 <defs>
  <style type="text/css">
   <![CDATA[
    .fil0 {fill:white;fill-rule:nonzero}
   ]]>
  </style>
 </defs>
 <g id="Layer_x0020_1">
  <metadata id="CorelCorpID_0Corel-Layer"/>
  <g id="_2560451928128">
   <path class="fil0" d="M347.15 269.13c6.63,-2.87 9.67,-10.57 6.77,-17.17l-47.41 -109.21c-8.39,-19.41 -25.85,-33.04 -46.73,-36.44 -20.82,-3.37 -41.74,3.97 -55.85,19.72l-90.93 101.51c-4.82,5.35 -4.33,13.63 1.02,18.44 5.35,4.82 13.63,4.37 18.44,-1.02l90.93 -101.5c8.11,-9.07 20.12,-13.35 32.19,-11.37 12.22,1.98 22.02,9.66 26.95,21.05l47.44 109.21c2.86,6.66 10.63,9.64 17.17,6.78z"/>
   <path class="fil0" d="M247.55 212.74c-3.49,-0.72 -7.06,0 -10,2.01l-93.94 63.98c-5.95,4.05 -7.51,12.19 -3.43,18.16 4.06,5.95 12.16,7.48 18.14,3.43l82.74 -56.36 58.24 92.24c3.88,6.15 11.96,7.93 18.02,4.11 6.09,-3.85 7.93,-11.93 4.08,-18.02l-65.46 -103.71c-1.87,-3 -4.93,-5.1 -8.39,-5.83z"/>
   <path class="fil0" d="M608.82 718.15l-216.98 0c-7.22,0 -13.06,5.83 -13.06,13.06 0,7.23 5.84,13.06 13.06,13.06l216.98 0c7.22,0 13.06,-5.83 13.06,-13.06 0,-7.23 -5.84,-13.06 -13.06,-13.06z"/>
   <path class="fil0" d="M740.18 533.39c-8.59,0 -15.56,-6.97 -15.56,-15.56l0 -61.69c0,-8.59 6.97,-15.56 15.56,-15.56l92.78 0c2.15,12.98 0.76,26.78 1.22,92.81l-94 0zm-316.83 -247.98l50.8 0 0 97.8c0,27.6 -22.44,50.04 -50.04,50.04l-77.36 0 36.16 -117.96c5.47,-17.86 21.73,-29.87 40.44,-29.87zm25.39 -63.36c0,-12.09 9.85,-21.93 21.96,-21.93 12.07,0 21.93,9.83 21.93,21.93l0 37.24 -43.89 0 0 -37.24zm98.49 366.76l-210.2 0 0 -117.54c0,-4.05 0.63,-8.05 1.76,-11.91l85.32 0c41.99,0 76.17,-34.17 76.17,-76.16l0 -97.8 5.41 0 41.54 0 0 303.4zm208.02 -240.09l-88.95 0 0 -18.42c0,-7.22 -5.84,-13.06 -13.06,-13.06 -7.23,0 -13.07,5.84 -13.07,13.06l0 261.66 -66.81 0 0 -319.61c0,-7.23 -5.84,-13.06 -13.06,-13.06l-41.54 0 0 -37.24c0,-26.49 -21.57,-48.06 -48.06,-48.06 -26.52,0 -48.09,21.57 -48.09,48.06l0 37.3c-29.92,0.31 -55.88,19.61 -64.69,48.28l-43.98 143.55c-1.98,6.52 -3.03,13.26 -3.03,20.09l0 120.69 -182.69 0c-7.23,0 -13.06,5.84 -13.06,13.06l0 90c0,27.15 22.15,49.26 49.39,49.26l3 0c7.22,0 13.06,-5.84 13.06,-13.07 0,-7.22 -5.84,-13.06 -13.06,-13.06l-3 0c-12.83,0 -23.27,-10.37 -23.27,-23.13l0 -76.93 511.96 0c7.22,0 13.06,-5.83 13.06,-13.06l0 -230.17 88.95 0c28.39,0 54.2,15.73 68.11,39.61l-83.19 0c-22.98,0 -41.68,18.7 -41.68,41.68l0 61.69c0,22.98 18.7,41.69 41.68,41.69l94 0 0 135.5c0,7.06 -3.2,13.69 -8.76,18.19 -5.61,4.56 -6.48,12.78 -1.92,18.39 4.53,5.58 12.75,6.46 18.36,1.9 11.73,-9.5 18.44,-23.52 18.44,-38.48 0,-24.65 -0.02,89.32 0.06,-241.14 0,-59.28 -48.82,-105.16 -105.09,-105.16z"/>
   <path class="fil0" d="M59.36 392.85c-9.61,-18.19 -11.54,-39.01 -5.47,-58.65 4.79,-15.36 14.06,-28.6 26.61,-38.2l53.92 102.36c1.13,2.12 2.78,3.88 4.85,5.12l42.87 25.59c-54.4,20.94 -99.37,8.13 -122.78,-36.22zm156.89 49.31c4.2,-2.22 6.86,-6.49 7,-11.22 0.11,-4.71 -2.33,-9.13 -6.38,-11.57l-61.06 -36.47 -58.8 -111.58c-3.35,-6.38 -11.28,-8.84 -17.65,-5.5 -24.35,12.84 -42.25,34.37 -50.41,60.67 -8.16,26.3 -5.58,54.21 7.28,78.55 20.92,39.65 55.51,60.11 97.31,60.11 25.39,0 53.47,-7.57 82.71,-22.98z"/>
   <path class="fil0" d="M279.72 768.38c-26.04,0 -47.27,-21.2 -47.27,-47.27 0,-26.04 21.23,-47.26 47.27,-47.26 26.06,0 47.26,21.22 47.26,47.26 0,26.07 -21.2,47.27 -47.26,47.27zm0 -120.65c-40.47,0 -73.37,32.93 -73.37,73.39 0,40.46 32.9,73.39 73.37,73.39 40.46,0 73.39,-32.93 73.39,-73.39 0,-40.46 -32.93,-73.39 -73.39,-73.39z"/>
   <path class="fil0" d="M721.03 768.38c-26.04,0 -47.26,-21.2 -47.26,-47.27 0,-26.04 21.22,-47.26 47.26,-47.26 26.07,0 47.27,21.22 47.27,47.26 0,26.07 -21.2,47.27 -47.27,47.27zm0 -120.65c-40.46,0 -73.39,32.93 -73.39,73.39 0,40.46 32.93,73.39 73.39,73.39 40.47,0 73.39,-32.93 73.39,-73.39 0,-40.46 -32.93,-73.39 -73.39,-73.39z"/>
  </g>
 </g>
</svg>
