<?xml version="1.0" encoding="UTF-8"?>
<!DOCTYPE svg PUBLIC "-//W3C//DTD SVG 1.1//EN" "http://www.w3.org/Graphics/SVG/1.1/DTD/svg11.dtd">
<!-- Creator: CorelDRAW 2019 (64-Bit) -->
<svg xmlns="http://www.w3.org/2000/svg" xml:space="preserve" width="0.888976in" height="0.895669in" version="1.1" style="shape-rendering:geometricPrecision; text-rendering:geometricPrecision; image-rendering:optimizeQuality; fill-rule:evenodd; clip-rule:evenodd"
viewBox="0 0 888.98 895.67"
 xmlns:xlink="http://www.w3.org/1999/xlink"
 xmlns:xodm="http://www.corel.com/coreldraw/odm/2003">
 <defs>
  <style type="text/css">
   <![CDATA[
    .fil0 {fill:white;fill-rule:nonzero}
   ]]>
  </style>
 </defs>
 <g id="Layer_x0020_1">
  <metadata id="CorelCorpID_0Corel-Layer"/>
  <g id="_2560416467264">
   <path class="fil0" d="M703.91 484.24l-103.21 0c-25.62,0 -50.47,-7.28 -71.91,-21.05 -5.41,-3.44 -12.55,-1.88 -15.99,3.5 -3.46,5.38 -1.9,12.55 3.47,15.99 25.2,16.15 54.38,24.71 84.43,24.71l103.21 0c10.78,0 20.54,-5.55 26.05,-14.82 5.55,-9.27 5.77,-20.48 0.65,-29.97l-3.72 -6.88c-25,-46.35 -60.91,-86.91 -103.86,-117.28 -42.6,-30.15 -92.31,-50.45 -143.76,-58.73 -8.76,-1.4 -17.66,1.08 -24.43,6.85 -6.8,5.8 -10.69,14.22 -10.69,23.12l0 41.15c0,32.59 9.96,63.85 28.72,90.38 3.7,5.21 10.93,6.46 16.12,2.76 5.21,-3.69 6.46,-10.91 2.76,-16.12 -16.01,-22.58 -24.45,-49.22 -24.45,-77.01l0 -41.15c0,-2.9 1.59,-4.69 2.56,-5.52 0.94,-0.8 2.93,-2.08 5.72,-1.62 48.01,7.73 94.36,26.64 134.09,54.77 40.07,28.33 73.54,66.15 96.86,109.38l3.72 6.91c1.76,3.25 0.48,6.06 -0.14,7.11 -0.63,1.08 -2.51,3.53 -6.2,3.53z"/>
   <path class="fil0" d="M159.43 332.08l17.98 0 -52.7 73.77 -20.08 0 54.8 -73.77zm227.77 1.88l0 70.02c0,1.02 -0.82,1.85 -1.88,1.85l-69.68 0 52.7 -73.74 16.98 0c1.06,0 1.88,0.85 1.88,1.88zm-47.3 -1.88l-52.7 73.77 -134.06 0 52.67 -73.77 134.09 0zm-278.02 73.77c-6.4,0 -11.57,5.18 -11.57,11.54 0,6.4 5.17,11.58 11.57,11.58l323.44 0c13.79,0 25,-11.24 25,-25l0 -70.02c0,-13.79 -11.21,-25 -25,-25l-323.44 0c-6.4,0 -11.57,5.17 -11.57,11.54 0,6.4 5.17,11.57 11.57,11.57l68.73 0 -54.8 73.74 -13.93 0 0 0.03z"/>
   <path class="fil0" d="M61.89 258.33l383.02 0c10.53,0 21.13,0.48 31.48,1.48 51.19,4.81 101.42,21.61 145.24,48.66 43.88,27.07 81.48,64.46 108.75,108.19 2.19,3.52 5.97,5.46 9.81,5.46 2.1,0 4.24,-0.57 6.12,-1.76 5.43,-3.39 7.08,-10.52 3.69,-15.92 -29.15,-46.73 -69.33,-86.71 -116.23,-115.64 -46.84,-28.89 -100.5,-46.9 -155.22,-52.02 -8.56,-0.79 -17.29,-1.31 -26,-1.48 -12.94,-26.39 -40.07,-43.63 -69.88,-43.63l-140.34 0c-6.4,0 -11.57,5.2 -11.57,11.57 0,6.4 5.17,11.57 11.57,11.57l140.34 0c16.79,0 32.37,7.76 42.55,20.39l-363.34 0c-6.4,0 -11.57,5.17 -11.57,11.55 0,6.39 5.17,11.57 11.57,11.57z"/>
   <path class="fil0" d="M61.89 214.8l121.61 0c6.4,0 11.57,-5.17 11.57,-11.57 0,-6.37 -5.18,-11.54 -11.57,-11.54l-121.61 0c-6.4,0 -11.57,5.17 -11.57,11.54 0,6.4 5.17,11.57 11.57,11.57z"/>
   <path class="fil0" d="M61.89 563.02l653.73 0c6.4,0 11.58,-5.18 11.58,-11.58 0,-6.37 -5.18,-11.57 -11.58,-11.57l-653.73 0c-6.4,0 -11.57,5.21 -11.57,11.57 0,6.4 5.17,11.58 11.57,11.58z"/>
   <path class="fil0" d="M61.89 607.84l653.73 0c6.4,0 11.58,-5.17 11.58,-11.57 0,-6.37 -5.18,-11.54 -11.58,-11.54l-653.73 0c-6.4,0 -11.57,5.17 -11.57,11.54 0,6.4 5.17,11.57 11.57,11.57z"/>
   <path class="fil0" d="M149.53 662.64l79.63 0c-7.31,12.4 -20.22,20.95 -34.87,22.55l-9.9 0c-14.67,-1.59 -27.56,-10.15 -34.87,-22.55zm327.93 14.99c1.79,2.67 3.72,5.2 5.86,7.56l-11.69 0c2.1,-2.36 4.06,-4.89 5.83,-7.56zm-115.2 0.22c1.73,2.56 3.64,5.03 5.69,7.33l-11.41 0c2.08,-2.3 3.98,-4.78 5.72,-7.33zm-109.38 7.33l-11.69 0c2.11,-2.36 4.07,-4.89 5.84,-7.56 1.79,2.67 3.72,5.2 5.85,7.56zm46.87 0c-14.65,-1.59 -27.55,-10.15 -34.83,-22.55l79.6 0c-7.31,12.4 -20.19,20.95 -34.87,22.55l-9.9 0zm115.09 0c-14.65,-1.59 -27.55,-10.15 -34.84,-22.55l79.61 0c-7.31,12.4 -20.19,20.95 -34.87,22.55l-9.9 0zm125.28 0l-9.9 0c-14.67,-1.59 -27.56,-10.15 -34.87,-22.55l79.63 0c-7.31,12.4 -20.22,20.95 -34.87,22.55zm261.93 -137.16l1.85 3.46c10.09,18.71 9.53,40.64 -1.14,58.64 -14.44,-3.09 -25.03,-15.78 -25.03,-31.14 0,-14.82 10.42,-27.53 24.32,-30.96zm20.67 137.16l-235.7 0c5.77,-6.51 10.38,-14.13 13.36,-22.55l150.99 0c26.48,0 50.68,-12.15 66.41,-33.33 19.45,-26.17 21.92,-60.2 6.48,-88.81l-43.2 -80.09c-3.04,-5.59 -10.07,-7.7 -15.67,-4.69 -5.63,3.05 -7.73,10.07 -4.69,15.67l30.12 55.86c-21.28,7.62 -36.2,27.81 -36.2,51.76 0,22.02 12.63,40.84 31.17,49.66 -9.9,7 -21.78,10.86 -34.41,10.86l-689.48 0c-6.37,0 -11.55,5.18 -11.55,11.56 0,6.39 5.18,11.57 11.55,11.57l62.23 0c3,8.42 7.58,16.04 13.39,22.55l-75.62 0c-6.37,0 -11.55,5.18 -11.55,11.58 0,6.37 5.18,11.57 11.55,11.57l760.83 0c6.4,0 11.57,-5.21 11.57,-11.57 0,-6.4 -5.17,-11.58 -11.57,-11.58z"/>
  </g>
 </g>
</svg>
