<?xml version="1.0" encoding="UTF-8"?>
<!DOCTYPE svg PUBLIC "-//W3C//DTD SVG 1.1//EN" "http://www.w3.org/Graphics/SVG/1.1/DTD/svg11.dtd">
<!-- Creator: CorelDRAW 2019 (64-Bit) -->
<svg xmlns="http://www.w3.org/2000/svg" xml:space="preserve" width="0.888976in" height="0.895669in" version="1.1" style="shape-rendering:geometricPrecision; text-rendering:geometricPrecision; image-rendering:optimizeQuality; fill-rule:evenodd; clip-rule:evenodd"
viewBox="0 0 888.98 895.67"
 xmlns:xlink="http://www.w3.org/1999/xlink"
 xmlns:xodm="http://www.corel.com/coreldraw/odm/2003">
 <defs>
  <style type="text/css">
   <![CDATA[
    .fil0 {fill:white;fill-rule:nonzero}
   ]]>
  </style>
 </defs>
 <g id="Layer_x0020_1">
  <metadata id="CorelCorpID_0Corel-Layer"/>
  <path class="fil0" d="M802.18 762.09l-49.35 0 0 -191.07 49.35 0 0 191.07zm-97.11 23.88c0,13.17 -10.72,23.89 -23.92,23.89 -13.17,0 -23.89,-10.72 -23.89,-23.89l0 -238.84c0,-13.16 10.72,-23.88 23.89,-23.88 13.2,0 23.92,10.72 23.92,23.88l0 238.84zm-95.56 -23.88l-0.04 0c-4.8,0 -9.51,1.45 -13.51,4.17 -40.97,28.13 -95.52,43.59 -153.65,43.59 -58.09,0 -112.68,-15.46 -153.65,-43.59 -3.97,-2.72 -8.67,-4.17 -13.49,-4.17l-0.03 0 0 -191.07 0.03 0c4.81,0 9.52,-1.46 13.49,-4.19 18.89,-12.94 40.79,-23.28 65.1,-30.7 10.05,-3.08 16.91,-12.35 16.91,-22.86l0 -37.78 143.32 0 0 37.78c0,10.51 6.86,19.78 16.88,22.86 24.34,7.43 46.24,17.76 65.09,30.7 4,2.73 8.7,4.19 13.51,4.19l0.04 0 0 191.07zm-262.72 -382.16l191.08 0c13.17,0 23.88,10.72 23.88,23.88 0,13.17 -10.71,23.89 -23.88,23.89l-191.08 0c-13.17,0 -23.89,-10.72 -23.89,-23.89 0,-13.16 10.72,-23.88 23.89,-23.88zm-143.32 -242.02c-13.17,0 -23.89,-10.72 -23.89,-23.89 0,-13.16 10.72,-23.88 23.89,-23.88l477.69 0c13.2,0 23.92,10.72 23.92,23.88 0,13.17 -10.72,23.89 -23.92,23.89l-477.69 0zm262.72 194.27l-47.76 0 0 -50.95 47.76 0 0 50.95zm47.8 -122.63c0,13.2 -10.72,23.92 -23.88,23.92l-95.57 0c-13.16,0 -23.88,-10.72 -23.88,-23.92l0 -23.88 143.32 0 0 23.88zm-286.64 576.43c0,13.17 -10.68,23.89 -23.88,23.89 -13.17,0 -23.89,-10.72 -23.89,-23.89l0 -238.84c0,-13.16 10.72,-23.88 23.89,-23.88 13.2,0 23.88,10.72 23.88,23.88l0 238.84zm-95.52 -23.88l-49.35 0 0 -191.07 49.35 0 0 191.07zm694.24 -238.84l-77.34 0c-9.87,-27.81 -36.41,-47.76 -67.57,-47.76 -30.54,0 -56.68,19.2 -66.97,46.2 -16.02,-10.05 -33.57,-18.64 -52.44,-25.58l0 -24.76c27.81,-9.84 47.76,-36.41 47.76,-67.54 0,-39.51 -32.12,-71.63 -71.64,-71.63l-23.88 0 0 -55.06c27.77,-9.87 47.76,-36.41 47.76,-67.57l0 -23.88 119.41 0c39.52,0 71.68,-32.12 71.68,-71.64 0,-39.52 -32.16,-71.64 -71.68,-71.64l-477.69 0c-39.52,0 -71.65,32.12 -71.65,71.64 0,39.52 32.12,71.64 71.65,71.64l119.43 0 0 23.88c0,31.17 19.96,57.7 47.76,67.57l0 55.06 -23.88 0c-39.52,0 -71.64,32.12 -71.64,71.63 0,31.14 19.96,57.7 47.76,67.54l0 24.76c-18.85,6.94 -36.41,15.54 -52.46,25.58 -10.26,-27 -36.41,-46.2 -66.97,-46.2 -31.14,0 -57.67,19.94 -67.54,47.76l-77.34 0c-13.19,0 -23.91,10.69 -23.91,23.88l0 238.84c0,13.2 10.72,23.89 23.91,23.89l77.34 0c9.87,27.8 36.41,47.76 67.54,47.76 30.57,0 56.67,-19.2 66.97,-46.2 47.61,29.85 108.19,46.2 171.87,46.2 63.68,0 124.24,-16.35 171.9,-46.2 10.26,27 36.41,46.2 66.94,46.2 31.17,0 57.7,-19.96 67.57,-47.76l77.34 0c13.19,0 23.88,-10.69 23.88,-23.89l0 -238.84c0,-13.19 -10.69,-23.88 -23.88,-23.88z"/>
 </g>
</svg>
