<?xml version="1.0" encoding="UTF-8"?>
<!DOCTYPE svg PUBLIC "-//W3C//DTD SVG 1.1//EN" "http://www.w3.org/Graphics/SVG/1.1/DTD/svg11.dtd">
<!-- Creator: CorelDRAW 2019 (64-Bit) -->
<svg xmlns="http://www.w3.org/2000/svg" xml:space="preserve" width="0.888976in" height="0.895669in" version="1.1" style="shape-rendering:geometricPrecision; text-rendering:geometricPrecision; image-rendering:optimizeQuality; fill-rule:evenodd; clip-rule:evenodd"
viewBox="0 0 888.98 895.67"
 xmlns:xlink="http://www.w3.org/1999/xlink"
 xmlns:xodm="http://www.corel.com/coreldraw/odm/2003">
 <defs>
  <style type="text/css">
   <![CDATA[
    .fil0 {fill:white;fill-rule:nonzero}
   ]]>
  </style>
 </defs>
 <g id="Layer_x0020_1">
  <metadata id="CorelCorpID_0Corel-Layer"/>
  <g id="_2560657031008">
   <path class="fil0" d="M351.97 746.52c-79.32,-24.66 -132.59,-97.08 -132.59,-180.22 0,-40.65 12.7,-79.36 36.77,-111.99 0.56,-0.74 1.06,-1.56 1.46,-2.38 3.99,-7.95 0.74,-17.61 -7.21,-21.57 -7.2,-3.61 -15.79,-1.29 -20.32,5.07 -28.08,38.13 -42.93,83.38 -42.93,130.87 0,48.07 15.21,93.79 43.91,132.18 27.76,37.12 67.32,65.09 111.34,78.8 1.61,0.5 3.2,0.73 4.78,0.73 6.87,0 13.24,-4.43 15.38,-11.33 2.64,-8.51 -2.11,-17.52 -10.6,-20.16z"/>
   <path class="fil0" d="M686.6 561.7c0,147.35 -119.89,267.24 -267.24,267.24 -147.39,0 -267.27,-119.89 -267.27,-267.24 0,-57.55 18.02,-112.41 52.12,-158.57 0.17,-0.27 0.38,-0.56 0.56,-0.82l214.59 -318.54 126.72 188.15 -39.57 58.72c-18.08,24.61 -27.61,53.82 -27.61,84.46 0,78.8 64.1,142.92 142.9,142.92 23.04,0 44.84,-5.49 64.12,-15.23 0.44,6.28 0.67,12.59 0.67,18.9zm-64.8 -344.54l88.56 131.47c0.19,0.27 0.38,0.53 0.56,0.79 14.12,19.14 21.6,41.85 21.6,65.69 0,61.04 -49.69,110.72 -110.72,110.72 -61.05,0 -110.7,-49.69 -110.7,-110.72 0,-23.83 7.46,-46.55 21.57,-65.69 0.2,-0.23 0.39,-0.5 0.56,-0.76l45.61 -67.71c0.09,-0.12 0.15,-0.27 0.23,-0.39l42.74 -63.41zm142.92 197.95c0,-30.64 -9.57,-59.85 -27.65,-84.46l-101.93 -151.33c-3,-4.43 -7.98,-7.09 -13.35,-7.09 -5.34,0 -10.37,2.67 -13.36,7.09l-42.93 63.78 -132.8 -197.15c-3,-4.43 -8.01,-7.11 -13.35,-7.11 -5.37,0 -10.36,2.67 -13.35,7.11l-227.98 338.41c-38.04,51.71 -58.13,113.02 -58.13,177.35 0,165.11 134.32,299.46 299.46,299.46 165.11,0 299.44,-134.35 299.44,-299.46 0,-13.18 -0.88,-26.39 -2.59,-39.39 29.74,-26.21 48.52,-64.54 48.52,-107.2z"/>
   <path class="fil0" d="M565.04 411.19c0,-7.8 1.58,-15.32 4.72,-22.39 3.61,-8.09 -0.06,-17.64 -8.16,-21.25 -8.13,-3.61 -17.67,0.06 -21.28,8.19 -4.96,11.18 -7.48,23.13 -7.48,35.45 0,29.24 14.5,56.38 38.82,72.67 2.76,1.81 5.87,2.69 8.95,2.69 5.19,0 10.28,-2.49 13.39,-7.13 4.96,-7.4 2.96,-17.41 -4.43,-22.34 -15.35,-10.3 -24.54,-27.44 -24.54,-45.9z"/>
   <path class="fil0" d="M411.72 768.82c-3.94,-10.36 -18.64,-13.33 -26.27,-5.22 -9.07,8.8 -4.17,24.92 8.25,27.18 12.32,2.69 23.06,-10.39 18.02,-21.96z"/>
   <path class="fil0" d="M613.33 498.52c10.39,7.2 25.24,-0.76 25.04,-13.38 0.23,-12.62 -14.64,-20.61 -25.04,-13.39 -9.39,5.87 -9.45,20.9 0,26.76z"/>
  </g>
 </g>
</svg>
