<?xml version="1.0" encoding="UTF-8"?>
<!DOCTYPE svg PUBLIC "-//W3C//DTD SVG 1.1//EN" "http://www.w3.org/Graphics/SVG/1.1/DTD/svg11.dtd">
<!-- Creator: CorelDRAW -->
<svg xmlns="http://www.w3.org/2000/svg" xml:space="preserve" width="1.5235mm" height="3.9493mm" version="1.1" style="shape-rendering:geometricPrecision; text-rendering:geometricPrecision; image-rendering:optimizeQuality; fill-rule:evenodd; clip-rule:evenodd"
viewBox="0 0 152.36 394.96"
 xmlns:xlink="http://www.w3.org/1999/xlink"
 xmlns:xodm="http://www.corel.com/coreldraw/odm/2003">
 <defs>
  <style type="text/css">
   <![CDATA[
    .fil1 {fill:#4485F5;fill-rule:nonzero}
    .fil0 {fill:#FCBB06;fill-rule:nonzero}
   ]]>
  </style>
 </defs>
 <g id="Layer_x0020_1">
  <metadata id="CorelCorpID_0Corel-Layer"/>
  <g id="_1941176950720">
   <path class="fil0" d="M26.01 129.45c-3.83,6.87 -7,12.94 -9.77,18.23 -19.29,37.64 -21.67,81.77 -5.68,120.87 15.45,38.04 39.76,63.53 39.76,63.53 -2.38,-17.96 -3.7,-44.51 4.22,-74.5 3.83,-14.79 8.32,-24.3 14,-36.85 26.82,-59.57 40.16,-89.3 43.33,-106.6 4.49,-24.97 0.26,-62.22 -40.68,-114.14l0 0.13c8.58,30.65 -41.35,122.2 -45.18,129.33z"/>
   <path class="fil1" d="M72.24 341.06c7.8,14.67 31.84,53.9 31.84,53.9 -1.72,-153.24 89.69,-151.26 25.22,-276.62l-0.13 0.13c-15.72,56.14 -89.56,160.77 -56.93,222.58l0 0z"/>
  </g>
 </g>
</svg>
