<svg version="1.1" id="Layer_1" xmlns="http://www.w3.org/2000/svg" xmlns:xlink="http://www.w3.org/1999/xlink" x="0px" y="0px"
	 width="100%" viewBox="0 0 450 490" enable-background="new 0 0 450 490" xml:space="preserve">
<path fill="#ffffff" opacity="1.000000" stroke="none"
	d="
M262.000000,491.000000 
	C174.666672,491.000000 87.833336,491.000000 1.000000,491.000000 
	C1.000000,327.666656 1.000000,164.333328 1.000000,1.000000 
	C151.000000,1.000000 301.000000,1.000000 451.000000,1.000000 
	C451.000000,164.333328 451.000000,327.666656 451.000000,491.000000 
	C388.166656,491.000000 325.333344,491.000000 262.000000,491.000000 
M13.978273,100.015518 
	C13.978273,100.015518 13.993964,100.020462 14.045073,100.745369 
	C14.710290,102.229019 15.375508,103.712677 16.070297,105.515503 
	C16.070297,105.515503 16.191271,105.812332 16.145388,106.407593 
	C16.441202,106.653687 16.737019,106.899780 17.076990,107.506020 
	C17.076990,107.506020 17.204655,107.845657 17.155561,108.407845 
	C17.437996,108.632332 17.720432,108.856812 17.996628,109.005219 
	C17.996628,109.005219 17.920555,109.011475 17.986599,109.734390 
	C18.642950,111.182159 19.299303,112.629929 20.016233,114.841019 
	C24.311228,125.455017 28.628687,136.059998 32.896698,146.684830 
	C42.906940,171.604401 52.823463,196.561874 62.907398,221.451538 
	C75.511383,252.561325 88.325592,283.585999 100.901688,314.707001 
	C115.180443,350.041351 129.296310,385.441559 143.538223,420.950867 
	C156.103836,420.950867 168.433502,420.717896 180.745621,421.080597 
	C184.905518,421.203156 186.750504,419.509766 187.895187,416.071289 
	C188.256577,414.985687 188.564331,413.878571 188.988510,412.818085 
	C198.350281,389.411438 207.692520,365.996826 217.115356,342.614777 
	C220.279129,334.764099 223.654327,326.998627 227.262222,318.410217 
	C241.291595,353.139221 254.945007,386.937561 268.595398,420.728394 
	C282.695129,420.728394 296.652069,420.728394 310.818115,420.728394 
	C354.963318,311.688171 399.065125,202.755096 443.498962,93.001991 
	C440.871277,93.001991 439.093781,93.001724 437.316254,93.002037 
	C421.151550,93.004906 404.986847,93.008141 388.822144,93.010719 
	C375.795227,93.012802 376.020020,93.098053 371.403076,105.222290 
	C360.792297,133.086349 349.905365,160.845123 339.194855,188.671387 
	C323.190308,230.251755 307.245880,271.855286 291.262329,313.443726 
	C289.219879,318.758209 287.096313,324.041534 284.644989,330.267059 
	C275.298187,306.112457 266.602417,283.127411 257.409393,260.342987 
	C255.699829,256.105957 256.322052,252.862854 257.875580,249.126099 
	C264.923035,232.174988 271.960480,215.218857 278.853668,198.204651 
	C289.303223,172.412537 299.613434,146.563995 310.018280,120.753723 
	C313.671356,111.691917 317.429108,102.672302 321.390259,93.021324 
	C301.923401,93.021324 283.285614,93.116890 264.650330,92.941612 
	C260.870880,92.906067 259.214600,94.157166 257.917908,97.752586 
	C247.937149,125.427208 237.699371,153.009125 227.458588,180.844742 
	C226.925339,180.224319 226.325073,179.807327 226.118866,179.245667 
	C216.121948,152.016769 206.077515,124.804588 196.297455,97.497757 
	C195.100632,94.156143 193.797623,92.876953 190.164963,92.930252 
	C175.503235,93.145370 160.836502,93.019943 146.171616,93.020226 
	C142.220291,93.020302 138.268967,93.020241 133.941681,93.020241 
	C134.220764,94.756363 134.197754,95.949333 134.608307,96.967476 
	C141.040115,112.917458 147.524811,128.846115 154.003326,144.777237 
	C168.376816,180.122696 182.690598,215.492752 197.226425,250.771347 
	C198.685852,254.313400 198.310516,257.143250 197.006882,260.441742 
	C190.264511,277.501617 183.692795,294.628845 177.006210,311.710907 
	C174.685318,317.640015 172.205444,323.506866 169.479599,330.182312 
	C165.062408,318.701660 161.003647,308.176666 156.962616,297.644867 
	C147.221848,272.258240 137.513275,246.859238 127.747040,221.482437 
	C117.505272,194.869995 107.243240,168.265228 96.925842,141.682053 
	C92.306648,129.780518 87.530785,117.939781 82.930916,105.420715 
	C82.617485,104.901756 82.304054,104.382797 81.936104,103.516754 
	C81.936104,103.516754 81.795975,103.194572 81.887749,102.420647 
	C81.542435,101.495697 81.045433,100.597542 80.876549,99.641426 
	C79.817757,93.647003 76.013786,92.762405 70.513641,92.869438 
	C52.708839,93.215912 34.892838,92.980530 17.081163,92.991165 
	C15.326821,92.992218 13.572569,93.143539 10.905162,93.267570 
	C11.924330,95.118660 12.492460,96.150543 13.050550,97.695686 
	C13.099523,98.032784 13.148495,98.369888 13.145881,99.287498 
	C13.422607,99.524689 13.699334,99.761879 13.978273,100.015518 
z"/>
<path fill="#217BBB" opacity="1.000000" stroke="none" 
	d="
M81.795975,103.194572 
	C81.795975,103.194572 81.936104,103.516754 82.035004,103.978302 
	C82.364609,104.983711 82.595314,105.527580 82.826027,106.071449 
	C87.530785,117.939781 92.306648,129.780518 96.925842,141.682053 
	C107.243240,168.265228 117.505272,194.869995 127.747040,221.482437 
	C137.513275,246.859238 147.221848,272.258240 156.962616,297.644867 
	C161.003647,308.176666 165.062408,318.701660 169.479599,330.182312 
	C172.205444,323.506866 174.685318,317.640015 177.006210,311.710907 
	C183.692795,294.628845 190.264511,277.501617 197.006882,260.441742 
	C198.310516,257.143250 198.685852,254.313400 197.226425,250.771347 
	C182.690598,215.492752 168.376816,180.122696 154.003326,144.777237 
	C147.524811,128.846115 141.040115,112.917458 134.608307,96.967476 
	C134.197754,95.949333 134.220764,94.756363 133.941681,93.020241 
	C138.268967,93.020241 142.220291,93.020302 146.171616,93.020226 
	C160.836502,93.019943 175.503235,93.145370 190.164963,92.930252 
	C193.797623,92.876953 195.100632,94.156143 196.297455,97.497757 
	C206.077515,124.804588 216.121948,152.016769 226.118866,179.245667 
	C226.325073,179.807327 226.925339,180.224319 227.458588,180.844742 
	C237.699371,153.009125 247.937149,125.427208 257.917908,97.752586 
	C259.214600,94.157166 260.870880,92.906067 264.650330,92.941612 
	C283.285614,93.116890 301.923401,93.021324 321.390259,93.021324 
	C317.429108,102.672302 313.671356,111.691917 310.018280,120.753723 
	C299.613434,146.563995 289.303223,172.412537 278.853668,198.204651 
	C271.960480,215.218857 264.923035,232.174988 257.875580,249.126099 
	C256.322052,252.862854 255.699829,256.105957 257.409393,260.342987 
	C266.602417,283.127411 275.298187,306.112457 284.644989,330.267059 
	C287.096313,324.041534 289.219879,318.758209 291.262329,313.443726 
	C307.245880,271.855286 323.190308,230.251755 339.194855,188.671387 
	C349.905365,160.845123 360.792297,133.086349 371.403076,105.222290 
	C376.020020,93.098053 375.795227,93.012802 388.822144,93.010719 
	C404.986847,93.008141 421.151550,93.004906 437.316254,93.002037 
	C439.093781,93.001724 440.871277,93.001991 443.498962,93.001991 
	C399.065125,202.755096 354.963318,311.688171 310.818115,420.728394 
	C296.652069,420.728394 282.695129,420.728394 268.595398,420.728394 
	C254.945007,386.937561 241.291595,353.139221 227.262222,318.410217 
	C223.654327,326.998627 220.279129,334.764099 217.115356,342.614777 
	C207.692520,365.996826 198.350281,389.411438 188.988510,412.818085 
	C188.564331,413.878571 188.256577,414.985687 187.895187,416.071289 
	C186.750504,419.509766 184.905518,421.203156 180.745621,421.080597 
	C168.433502,420.717896 156.103836,420.950867 143.538223,420.950867 
	C129.296310,385.441559 115.180443,350.041351 100.901688,314.707001 
	C88.325592,283.585999 75.511383,252.561325 62.907398,221.451538 
	C52.823463,196.561874 42.906940,171.604401 32.896698,146.684830 
	C28.628687,136.059998 24.311228,125.455017 20.096539,114.148911 
	C19.424747,111.975029 18.672651,110.493256 17.920555,109.011475 
	C17.920555,109.011475 17.996628,109.005219 17.885702,108.826218 
	C17.605259,108.365440 17.415218,108.098251 17.204655,107.845657 
	C17.204655,107.845657 17.076990,107.506020 16.937838,107.089584 
	C16.596212,106.386215 16.393742,106.099274 16.191269,105.812332 
	C16.191271,105.812332 16.070297,105.515503 16.052965,104.969299 
	C15.355076,102.955559 14.674520,101.488007 13.993963,100.020462 
	C13.993964,100.020462 13.978273,100.015518 13.902133,99.763214 
	C13.616483,99.242935 13.406974,98.974960 13.197466,98.706985 
	C13.148495,98.369888 13.099523,98.032784 13.261892,97.125259 
	C15.821485,95.704781 18.159626,94.152489 20.519623,94.118507 
	C35.952377,93.896355 51.391262,94.120514 66.825020,93.936485 
	C72.044609,93.874252 76.771385,93.809708 78.733994,100.023315 
	C79.130188,101.277641 80.743698,102.147469 81.795975,103.194572 
z"/>
<path fill="#3E78AA" opacity="1.000000" stroke="none" 
	d="
M81.841858,102.807610 
	C80.743698,102.147469 79.130188,101.277641 78.733994,100.023315 
	C76.771385,93.809708 72.044609,93.874252 66.825020,93.936485 
	C51.391262,94.120514 35.952377,93.896355 20.519623,94.118507 
	C18.159626,94.152489 15.821485,95.704781 13.266912,96.868637 
	C12.492460,96.150543 11.924330,95.118660 10.905162,93.267570 
	C13.572569,93.143539 15.326821,92.992218 17.081163,92.991165 
	C34.892838,92.980530 52.708839,93.215912 70.513641,92.869438 
	C76.013786,92.762405 79.817757,93.647003 80.876549,99.641426 
	C81.045433,100.597542 81.542435,101.495697 81.841858,102.807610 
z"/>
<path fill="#3E78AA" opacity="1.000000" stroke="none" 
	d="
M17.953577,109.372932 
	C18.672651,110.493256 19.424747,111.975029 20.066250,113.767258 
	C19.299303,112.629929 18.642950,111.182159 17.953577,109.372932 
z"/>
<path fill="#3E78AA" opacity="1.000000" stroke="none" 
	d="
M14.019518,100.382919 
	C14.674520,101.488007 15.355076,102.955559 16.038179,104.809715 
	C15.375508,103.712677 14.710290,102.229019 14.019518,100.382919 
z"/>
<path fill="#3E78AA" opacity="1.000000" stroke="none" 
	d="
M82.878471,105.746078 
	C82.595314,105.527580 82.364609,104.983711 82.062256,104.151840 
	C82.304054,104.382797 82.617485,104.901756 82.878471,105.746078 
z"/>
<path fill="#3E78AA" opacity="1.000000" stroke="none" 
	d="
M13.171673,98.997238 
	C13.406974,98.974960 13.616483,99.242935 13.901027,99.754982 
	C13.699334,99.761879 13.422607,99.524689 13.171673,98.997238 
z"/>
<path fill="#3E78AA" opacity="1.000000" stroke="none" 
	d="
M16.168327,106.109962 
	C16.393742,106.099274 16.596212,106.386215 16.915760,106.909515 
	C16.737019,106.899780 16.441202,106.653687 16.168327,106.109962 
z"/>
<path fill="#3E78AA" opacity="1.000000" stroke="none" 
	d="
M17.180107,108.126755 
	C17.415218,108.098251 17.605259,108.365440 17.888821,108.864258 
	C17.720432,108.856812 17.437996,108.632332 17.180107,108.126755 
z"/>
</svg>