<?xml version="1.0" encoding="UTF-8"?>
<!DOCTYPE svg PUBLIC "-//W3C//DTD SVG 1.1//EN" "http://www.w3.org/Graphics/SVG/1.1/DTD/svg11.dtd">
<!-- Creator: CorelDRAW -->
<svg xmlns="http://www.w3.org/2000/svg" xml:space="preserve" width="2072px" height="577px" version="1.1" style="shape-rendering:geometricPrecision; text-rendering:geometricPrecision; image-rendering:optimizeQuality; fill-rule:evenodd; clip-rule:evenodd"
viewBox="0 0 1154.07 321.22"
 xmlns:xlink="http://www.w3.org/1999/xlink"
 xmlns:xodm="http://www.corel.com/coreldraw/odm/2003">
 <defs>
  <style type="text/css">
   <![CDATA[
    .fil3 {fill:#4485F5;fill-rule:nonzero}
    .fil0 {fill:#4584F8;fill-rule:nonzero}
    .fil1 {fill:#F9BD06;fill-rule:nonzero}
    .fil2 {fill:#FCBB06;fill-rule:nonzero}
   ]]>
  </style>
 </defs>
 <g id="Layer_x0020_1">
  <metadata id="CorelCorpID_0Corel-Layer"/>
  <g id="SAQCO_x0020_ARABIA_x0020_LOGO_x0020__x0020_-_x0020_56.pdf">
   <path class="fil0" d="M223.65 280.77c-8.19,0 -15.78,-0.96 -22.76,-2.87 -6.98,-1.9 -13.04,-4.72 -18.17,-8.43l12.61 -17.84c5.45,3.27 10.42,5.65 14.89,7.12 4.48,1.47 8.9,2.21 13.26,2.21 4.37,0 7.83,-0.63 10.4,-1.88 2.56,-1.26 3.84,-2.92 3.84,-5 0,-1.63 -0.71,-2.97 -2.12,-4.01 -1.42,-1.03 -3.66,-1.77 -6.72,-2.21l-17.18 -2.62c-8.62,-1.3 -15.2,-4.17 -19.73,-8.59 -4.53,-4.42 -6.79,-10.17 -6.79,-17.27 0,-5.89 1.5,-10.94 4.5,-15.14 3,-4.2 7.28,-7.42 12.85,-9.66 5.57,-2.24 12.22,-3.35 19.97,-3.35 6.33,0 12.61,0.87 18.83,2.61 6.22,1.75 12,4.37 17.35,7.86l-12.61 17.03c-4.69,-2.73 -9.16,-4.72 -13.42,-5.98 -4.26,-1.25 -8.51,-1.88 -12.77,-1.88 -3.38,0 -6.11,0.57 -8.18,1.72 -2.08,1.14 -3.11,2.64 -3.11,4.5 0,1.75 0.76,3.14 2.29,4.18 1.52,1.03 4.14,1.82 7.86,2.37l17.18 2.62c8.52,1.2 15.09,4.01 19.73,8.43 4.64,4.42 6.96,10.01 6.96,16.78 0,5.67 -1.7,10.69 -5.08,15.06 -3.38,4.36 -7.99,7.83 -13.83,10.39 -5.84,2.57 -12.52,3.85 -20.05,3.85z"/>
   <path class="fil0" d="M293.05 253.27c0,2.73 1.2,4.85 3.6,6.38 2.4,1.53 5.73,2.29 9.99,2.29 3.16,0 6.14,-0.32 8.92,-0.98 2.78,-0.65 5.32,-1.69 7.61,-3.11l0 -11.13c-2.51,-0.66 -5.07,-1.15 -7.69,-1.48 -2.62,-0.32 -5.3,-0.48 -8.02,-0.48 -4.59,0 -8.13,0.73 -10.64,2.21 -2.51,1.47 -3.77,3.57 -3.77,6.3zm6.22 27.33c-6.11,0 -11.54,-1.14 -16.28,-3.43 -4.75,-2.29 -8.46,-5.46 -11.13,-9.5 -2.68,-4.03 -4.02,-8.67 -4.02,-13.91 0,-8.29 3.14,-14.71 9.42,-19.24 6.27,-4.53 15.03,-6.79 26.27,-6.79 6.77,0 13.31,0.82 19.64,2.46l0 -4.26c0,-4.36 -1.39,-7.61 -4.17,-9.74 -2.78,-2.13 -6.9,-3.19 -12.36,-3.19 -3.38,0 -7.18,0.54 -11.38,1.63 -4.2,1.1 -9.14,2.84 -14.81,5.24l-9.5 -19.48c7.1,-3.16 13.94,-5.53 20.55,-7.12 6.6,-1.58 13.23,-2.37 19.89,-2.37 12,0 21.33,2.86 27.99,8.59 6.65,5.73 9.99,13.78 9.99,24.15l0 55.49 -26.2 0 0 -5.24c-3.49,2.41 -7.17,4.12 -11.05,5.16 -3.87,1.04 -8.16,1.55 -12.85,1.55z"/>
   <path class="fil0" d="M510.05 280.77c-8.62,0 -16.4,-1.97 -23.33,-5.89 -6.93,-3.93 -12.41,-9.31 -16.45,-16.13 -4.04,-6.82 -6.05,-14.43 -6.05,-22.83 0,-8.52 2.01,-16.16 6.05,-22.92 4.04,-6.77 9.52,-12.14 16.45,-16.13 6.93,-3.98 14.71,-5.97 23.33,-5.97 7.09,0 13.86,1.39 20.3,4.17 6.44,2.79 11.89,6.74 16.37,11.87l-16.21 16.86c-3.05,-3.49 -6.16,-6.03 -9.33,-7.61 -3.17,-1.58 -6.66,-2.38 -10.47,-2.38 -3.83,0 -7.26,0.96 -10.32,2.87 -3.05,1.91 -5.46,4.53 -7.2,7.86 -1.75,3.33 -2.62,7.12 -2.62,11.38 0,4.14 0.9,7.88 2.7,11.21 1.8,3.33 4.28,5.95 7.45,7.86 3.16,1.91 6.71,2.86 10.64,2.86 3.6,0 6.93,-0.76 9.99,-2.29 3.05,-1.53 6,-3.87 8.83,-7.04l15.72 16.37c-4.36,5.02 -9.71,8.92 -16.04,11.7 -6.33,2.79 -12.93,4.18 -19.81,4.18z"/>
   <path class="fil0" d="M594.53 257.85c4.04,0 7.64,-0.98 10.81,-2.95 3.16,-1.96 5.67,-4.61 7.53,-7.93 1.85,-3.33 2.78,-7.02 2.78,-11.05 0,-4.15 -0.93,-7.89 -2.78,-11.22 -1.86,-3.33 -4.4,-5.97 -7.61,-7.94 -3.22,-1.96 -6.8,-2.95 -10.73,-2.95 -3.93,0 -7.5,0.99 -10.72,2.95 -3.22,1.97 -5.76,4.61 -7.61,7.94 -1.86,3.33 -2.78,7.07 -2.78,11.22 0,4.03 0.92,7.72 2.78,11.05 1.85,3.32 4.39,5.97 7.61,7.93 3.22,1.97 6.79,2.95 10.72,2.95zm0 22.92c-8.84,0 -16.81,-1.99 -23.9,-5.98 -7.09,-3.98 -12.71,-9.35 -16.86,-16.12 -4.15,-6.77 -6.22,-14.35 -6.22,-22.75 0,-8.41 2.07,-16.02 6.22,-22.84 4.15,-6.82 9.77,-12.22 16.86,-16.21 7.09,-3.98 15.06,-5.97 23.9,-5.97 8.84,0 16.81,1.99 23.9,5.97 7.1,3.99 12.72,9.39 16.86,16.21 4.15,6.82 6.22,14.43 6.22,22.84 0,8.4 -2.07,15.98 -6.22,22.75 -4.14,6.77 -9.76,12.14 -16.86,16.12 -7.09,3.99 -15.06,5.98 -23.9,5.98z"/>
   <path class="fil0" d="M418.43 255.97c-3.06,1.14 -6.44,1.72 -10.15,1.72 -4.26,0 -8.1,-0.96 -11.54,-2.87 -3.44,-1.91 -6.17,-4.53 -8.18,-7.86 -2.03,-3.32 -3.03,-7.06 -3.03,-11.21 0,-4.15 1,-7.88 3.03,-11.21 2.01,-3.33 4.74,-5.95 8.18,-7.86 3.44,-1.91 7.28,-2.86 11.54,-2.86 3.6,0 6.98,0.57 10.15,1.71 3.16,1.15 5.89,2.82 8.18,5l0 30.28c-2.4,2.29 -5.13,4.01 -8.18,5.16zm8.18 45.46l0 11.1 0 8.69 26.52 -8.69 0 -11.1 0 -108.89 -26.19 0 0 4.91c-3.27,-1.97 -6.79,-3.47 -10.56,-4.51 -3.76,-1.03 -7.72,-1.55 -11.86,-1.55 -8.41,0 -16.02,1.96 -22.84,5.89 -6.82,3.93 -12.22,9.25 -16.21,15.96 -3.98,6.71 -5.97,14.22 -5.97,22.51 0,8.29 1.96,15.8 5.89,22.51 3.93,6.71 9.25,12.06 15.96,16.04 6.71,3.99 14.16,5.98 22.35,5.98 8.51,0 16.15,-2.4 22.91,-7.21l0 28.36z"/>
   <path class="fil1" d="M730.07 257.11c-2.29,1.42 -4.83,2.45 -7.61,3.11 -2.79,0.65 -5.76,0.98 -8.93,0.98 -4.25,0 -7.58,-0.76 -9.98,-2.29 -2.4,-1.53 -3.6,-3.66 -3.6,-6.39 0,-2.72 1.25,-4.83 3.76,-6.3 2.51,-1.47 6.06,-2.21 10.64,-2.21 2.73,0 5.41,0.16 8.02,0.49 2.62,0.33 5.19,0.82 7.7,1.48l0 11.13zm16.2 -58.36c-6.65,-5.73 -15.98,-8.6 -27.99,-8.6 -6.66,0 -13.29,0.8 -19.89,2.38 -6.6,1.58 -13.45,3.96 -20.54,7.12l9.49 19.48c5.67,-2.4 10.62,-4.15 14.82,-5.24 4.2,-1.09 7.99,-1.64 11.37,-1.64 5.46,0 9.58,1.07 12.36,3.2 2.79,2.12 4.18,5.37 4.18,9.74l0 4.25c-6.33,-1.63 -12.88,-2.45 -19.65,-2.45 -11.24,0 -19.99,2.26 -26.27,6.79 -6.28,4.53 -9.41,10.94 -9.41,19.23 0,5.24 1.33,9.88 4.01,13.92 2.67,4.04 6.38,7.2 11.13,9.49 4.75,2.3 10.17,3.44 16.29,3.44 4.69,0 8.97,-0.52 12.85,-1.55 3.87,-1.04 7.55,-2.76 11.05,-5.16l0 5.24 26.19 0 0 -55.5c0,-10.36 -3.33,-18.41 -9.99,-24.14z"/>
   <path class="fil1" d="M807.69 192.53c-3.82,1.8 -7.15,4.45 -9.98,7.94l0 -8.68 -26.52 0 0 86.6 26.52 0 0 -55c2.18,-3.5 5.04,-6.2 8.59,-8.11 3.55,-1.91 7.39,-2.86 11.54,-2.86 2.29,0 4.53,0.22 6.71,0.65 2.18,0.44 4.15,1.09 5.9,1.97l0 -23.08c-1.97,-1.31 -5.3,-2.02 -9.99,-2.13 -4.69,0 -8.95,0.9 -12.77,2.7z"/>
   <path class="fil1" d="M889.98 257.11c-2.29,1.42 -4.83,2.45 -7.61,3.11 -2.78,0.65 -5.76,0.98 -8.92,0.98 -4.26,0 -7.59,-0.76 -9.99,-2.29 -2.4,-1.53 -3.6,-3.66 -3.6,-6.39 0,-2.72 1.25,-4.83 3.77,-6.3 2.5,-1.47 6.05,-2.21 10.64,-2.21 2.72,0 5.4,0.16 8.02,0.49 2.62,0.33 5.18,0.82 7.69,1.48l0 11.13zm16.21 -58.36c-6.66,-5.73 -15.99,-8.6 -28,-8.6 -6.65,0 -13.28,0.8 -19.88,2.38 -6.61,1.58 -13.46,3.96 -20.55,7.12l9.5 19.48c5.67,-2.4 10.61,-4.15 14.81,-5.24 4.2,-1.09 7.99,-1.64 11.38,-1.64 5.45,0 9.57,1.07 12.36,3.2 2.78,2.12 4.17,5.37 4.17,9.74l0 4.25c-6.33,-1.63 -12.88,-2.45 -19.64,-2.45 -11.24,0 -20,2.26 -26.28,6.79 -6.27,4.53 -9.41,10.94 -9.41,19.23 0,5.24 1.34,9.88 4.01,13.92 2.68,4.04 6.39,7.2 11.13,9.49 4.75,2.3 10.18,3.44 16.29,3.44 4.69,0 8.98,-0.52 12.85,-1.55 3.88,-1.04 7.56,-2.76 11.05,-5.16l0 5.24 26.19 0 0 -55.5c0,-10.36 -3.33,-18.41 -9.98,-24.14z"/>
   <path class="fil1" d="M1048.42 154.63c-4.03,0 -7.47,1.42 -10.31,4.26 -2.84,2.84 -4.25,6.28 -4.25,10.31 0,4.04 1.41,7.48 4.25,10.32 2.84,2.83 6.28,4.25 10.31,4.25 4.04,0 7.48,-1.42 10.32,-4.25 2.83,-2.84 4.25,-6.28 4.25,-10.32 0,-4.03 -1.42,-7.47 -4.25,-10.31 -2.84,-2.84 -6.28,-4.26 -10.32,-4.26z"/>
   <polygon class="fil1" points="1035.17,278.39 1061.68,278.39 1061.68,191.79 1035.17,191.79 "/>
   <path class="fil1" d="M1127.88 257.11c-2.29,1.42 -4.83,2.45 -7.61,3.11 -2.78,0.65 -5.76,0.98 -8.92,0.98 -4.26,0 -7.59,-0.76 -9.99,-2.29 -2.4,-1.53 -3.6,-3.66 -3.6,-6.39 0,-2.72 1.26,-4.83 3.77,-6.3 2.51,-1.47 6.05,-2.21 10.64,-2.21 2.72,0 5.4,0.16 8.02,0.49 2.62,0.33 5.18,0.82 7.69,1.48l0 11.13zm16.21 -58.36c-6.66,-5.73 -15.99,-8.6 -27.99,-8.6 -6.66,0 -13.29,0.8 -19.89,2.38 -6.61,1.58 -13.45,3.96 -20.55,7.12l9.5 19.48c5.67,-2.4 10.61,-4.15 14.81,-5.24 4.2,-1.09 8,-1.64 11.38,-1.64 5.46,0 9.58,1.07 12.36,3.2 2.78,2.12 4.17,5.37 4.17,9.74l0 4.25c-6.33,-1.63 -12.87,-2.45 -19.64,-2.45 -11.24,0 -20,2.26 -26.27,6.79 -6.28,4.53 -9.42,10.94 -9.42,19.23 0,5.24 1.34,9.88 4.02,13.92 2.67,4.04 6.38,7.2 11.13,9.49 4.74,2.3 10.17,3.44 16.28,3.44 4.69,0 8.98,-0.52 12.85,-1.55 3.88,-1.04 7.56,-2.76 11.05,-5.16l0 5.24 26.19 0 0 -55.5c0,-10.36 -3.33,-18.41 -9.98,-24.14z"/>
   <path class="fil1" d="M995.68 246.39c-2.02,3.33 -4.72,5.95 -8.1,7.85 -3.39,1.91 -7.26,2.87 -11.62,2.87 -3.6,0 -6.99,-0.6 -10.15,-1.8 -3.17,-1.2 -5.9,-2.84 -8.19,-4.91l0 -30.29c2.4,-2.29 5.13,-4.01 8.19,-5.15 3.05,-1.15 6.43,-1.72 10.15,-1.72 4.25,0 8.1,0.95 11.54,2.86 3.43,1.91 6.16,4.53 8.18,7.86 2.02,3.33 3.03,7.07 3.03,11.21 0,4.15 -1.01,7.89 -3.03,11.22zm7.29 -49.77c-6.66,-3.98 -14.14,-5.97 -22.43,-5.97 -8.51,0 -16.15,2.4 -22.92,7.2l0 -33.61 0 -4.53 0 -7.82 -26.52 -4.61 0 16.52 0 0.44 0 114.15 26.19 0 0 -4.91c3.28,1.96 6.82,3.46 10.65,4.5 3.82,1.04 7.74,1.55 11.78,1.55 8.4,0 16.01,-1.96 22.84,-5.89 6.82,-3.93 12.22,-9.25 16.2,-15.96 3.99,-6.71 5.98,-14.21 5.98,-22.51 0,-8.29 -1.96,-15.79 -5.89,-22.51 -3.93,-6.71 -9.23,-12.05 -15.88,-16.04z"/>
   <path class="fil1" d="M274.41 128.72c-2.94,0 -5.44,1.03 -7.51,3.1 -2.07,2.06 -3.1,4.56 -3.1,7.5 0,2.94 1.03,5.44 3.1,7.5 2.07,2.07 4.57,3.1 7.51,3.1 2.93,0 5.43,-1.03 7.5,-3.1 2.06,-2.06 3.1,-4.56 3.1,-7.5 0,-2.94 -1.04,-5.44 -3.1,-7.5 -2.07,-2.07 -4.57,-3.1 -7.5,-3.1z"/>
   <path class="fil1" d="M299.2 128.72c-2.83,0 -5.27,1.03 -7.34,3.1 -2.06,2.06 -3.1,4.56 -3.1,7.5 0,2.94 1.04,5.44 3.1,7.5 2.07,2.07 4.51,3.1 7.34,3.1 2.94,0 5.44,-1.03 7.51,-3.1 2.06,-2.06 3.1,-4.56 3.1,-7.5 0,-2.94 -1.04,-5.44 -3.1,-7.5 -2.07,-2.07 -4.57,-3.1 -7.51,-3.1z"/>
   <path class="fil1" d="M233.62 99.51c-4.24,1.75 -8.32,2.61 -12.23,2.61 -5.77,0 -10.36,-2.06 -13.79,-6.2 -3.42,-4.13 -5.14,-9.62 -5.14,-16.47 0,-6.85 1.9,-12.43 5.71,-16.72 3.81,-4.3 8.65,-6.45 14.52,-6.45 3.48,0 7.12,0.71 10.93,2.12l0 41.11zm112.73 -3.42c0,1.09 -0.38,2.01 -1.14,2.77 -0.87,0.87 -1.91,1.31 -3.1,1.31l-23.98 0 -1.14 0 -7.18 0 0 -2.45 0 -55.96 -19.74 0 0 53.84c0,1.3 -0.49,2.39 -1.47,3.26 -0.65,0.87 -1.74,1.31 -3.26,1.31l-23.5 0 -1.14 0 -3.42 0c-1.09,0 -1.96,-0.38 -2.61,-1.14 -0.77,-0.66 -1.15,-1.64 -1.15,-2.94l0 -58.73 -9.78 0 -7.02 5.38c-5.66,-2.39 -11.31,-3.59 -16.97,-3.59 -10.11,0 -18.65,3.54 -25.61,10.61 -7.61,7.83 -11.42,17.67 -11.42,29.53 0,12.94 4.13,23.27 12.4,30.99 6.2,5.44 13.59,8.16 22.19,8.16 7.61,0 14.52,-2.56 20.71,-7.67 4.03,4.03 8.54,6.04 13.55,6.04l9.13 0 1.14 0 30.35 0c5.54,0 10.17,-2.23 13.86,-6.69l0.33 0 6.04 6.69 4.57 0 1.14 0 30.34 0c5.33,0 9.79,-2.07 13.38,-6.2 2.82,-3.59 4.24,-7.51 4.24,-11.75l0 -57.1 -19.74 0 0 54.33z"/>
   <path class="fil1" d="M352.55 128.72c-2.94,0 -5.41,1.03 -7.42,3.1 -2.02,2.06 -3.02,4.56 -3.02,7.5 0,2.94 1,5.44 3.02,7.5 2.01,2.07 4.48,3.1 7.42,3.1 2.94,0 5.44,-1.03 7.5,-3.1 2.07,-2.06 3.1,-4.56 3.1,-7.5 0,-2.94 -1.03,-5.44 -3.1,-7.5 -2.06,-2.07 -4.56,-3.1 -7.5,-3.1z"/>
   <path class="fil1" d="M518.13 78.14c-5,5.55 -8.54,11.37 -10.6,17.46l-0.65 0c-2.18,-5.98 -5.55,-11.53 -10.12,-16.64 -4.13,-4.9 -8.05,-8.16 -11.74,-9.79 2.39,-4.35 5.76,-7.61 10.11,-9.79 3.92,-1.85 8.05,-2.77 12.4,-2.77 4.13,0 7.88,0.82 11.26,2.45 4.45,2.17 7.99,5.54 10.6,10.11 -3.48,1.52 -7.23,4.51 -11.26,8.97zm61.99 17.95c0,1.09 -0.38,2.01 -1.14,2.77 -0.87,0.87 -1.9,1.31 -3.1,1.31l-23.98 0 -1.14 0 -25.12 0c1.41,-5 4.4,-10.01 8.97,-15.01 4.78,-4.79 9.35,-8.16 13.7,-10.12l1.96 -4.56c-3.81,-10.44 -10.11,-18.33 -18.92,-23.66 -7.07,-4.57 -14.85,-6.85 -23.33,-6.85 -8.48,0 -16.37,2.07 -23.66,6.2 -9.78,5.54 -16.53,13.65 -20.23,24.31l1.8 4.56c5,2.07 9.84,5.71 14.52,10.93 4.24,5.01 7.01,9.74 8.32,14.2l-46.17 0 -1.14 0 -7.18 0 0 -58.41 -19.9 0 0 69.34c0,18.7 -9.63,28.06 -28.88,28.06 -3.26,0 -6.63,-0.28 -10.11,-0.82l0 7.02 7.99 9.95c2.29,0.1 4.41,0.16 6.36,0.16 11.42,0 21.05,-2.88 28.88,-8.65 9.46,-6.96 14.63,-16.96 15.5,-30.01l7.34 0 1.14 0 55.63 0c3.26,0 6.14,-1.42 8.65,-4.24l0.81 0c2.5,2.82 5.28,4.24 8.32,4.24l34.75 0 1.14 0 30.35 0c5.43,0 9.84,-2.07 13.21,-6.2 2.94,-3.27 4.41,-7.18 4.41,-11.75l0 -98.86 -19.75 0 0 96.09z"/>
   <polygon class="fil1" points="622.38,0 622.38,120.89 632.17,120.89 642.28,112.73 642.28,0 "/>
   <path class="fil0" d="M724.55 101.03l-10.86 0c-6.06,0 -10.85,-1.92 -14.36,-5.75 -3.52,-3.83 -5.27,-8.99 -5.27,-15.49 0,-6.7 1.59,-11.97 4.79,-15.8 3.19,-3.84 7.5,-5.75 12.93,-5.75 3.3,0 6.17,1.06 8.62,3.19 2.77,2.45 4.15,5.8 4.15,10.06l0 29.54zm169.44 -61.95l33.37 -20.28 0 -18.04 -56.68 32.57 0 18.2c0,0.85 0.37,1.28 1.12,1.28 15.22,1.6 27.19,7.56 35.92,17.88 6.49,7.45 10.17,16.18 11.02,26.19 0,2.76 -1.38,4.15 -4.15,4.15l-63.38 0 0 0.04 -102.07 0 0 -0.04 -5.11 0 0 -29.54c0,-10.22 -3.83,-18.09 -11.5,-23.63 -5.85,-3.94 -12.77,-5.91 -20.75,-5.91 -10.96,0 -19.96,3.41 -26.98,10.22 -6.71,6.71 -10.06,16.02 -10.06,27.94 0,10.01 2.82,18.42 8.46,25.23 6.7,7.98 15.91,11.97 27.62,11.97l13.25 0c-1.59,14.58 -11.12,21.87 -28.58,21.87 -3.83,0 -7.93,-0.37 -12.29,-1.11l0 7.02 8.14 10.06 0.48 0c2.98,0.21 5.27,0.32 6.87,0.32 4.79,0 9.68,-0.59 14.69,-1.76 7.12,-1.7 13.25,-4.84 18.36,-9.42 7.34,-6.49 11.38,-15.48 12.13,-26.98l5.27 0 0 0 102.07 0 0 0 69.61 0c5.1,0 9.28,-1.81 12.53,-5.43 3.24,-3.61 4.87,-8.3 4.87,-14.05 0,-12.34 -3.73,-23.73 -11.18,-34.16 -8.3,-11.39 -19.32,-19.59 -33.05,-24.59z"/>
   <path class="fil0" d="M1134.6 43.87l0 53.16c0,2.67 -1.34,4 -3.99,4l-30.02 0 0 -2.56c0.1,-1.28 0.16,-2.23 0.16,-2.87l0 -42.63 -19.48 0 0 44.06c0,2.67 -1.33,4 -3.99,4l-30.18 0c0.11,-1.49 0.16,-3.78 0.16,-6.87l0 -31.93 -19.47 0 0 34.8c0,2.67 -1.34,4 -4,4l-37.99 0 -1.12 0 -3.04 0c-1.38,0 -2.39,-0.48 -3.03,-1.44 -0.64,-0.64 -0.96,-1.49 -0.96,-2.56l0 -94.03 -19.47 0 0 96.75c0,5.11 1.91,9.42 5.74,12.93 3.3,3.09 7.13,4.63 11.5,4.63l9.26 0 1.12 0 44.22 0c5.43,0 9.9,-2.18 13.41,-6.54l0.48 0 6.07 6.54 33.53 0c5.42,0 9.89,-2.18 13.41,-6.54l0.48 0 5.9 6.54 33.53 0c4.79,0 8.86,-1.73 12.22,-5.19 3.35,-3.46 5.02,-7.58 5.02,-12.37l0 -55.88 -19.47 0z"/>
   <path class="fil2" d="M19.69 109.04c-2.83,5.23 -5.26,9.83 -7.34,13.88 -14.66,28.47 -16.46,61.96 -4.36,91.6 11.77,28.82 30.17,48.06 30.17,48.06 -1.81,-13.54 -2.8,-33.64 3.19,-56.44 2.92,-11.14 6.32,-18.44 10.57,-27.87 20.31,-45.13 30.46,-67.69 32.83,-80.77 3.43,-19 0.19,-47.19 -30.77,-86.52l-0.04 0.15c6.48,23.13 -31.34,92.55 -34.25,97.91z"/>
   <path class="fil3" d="M54.79 269.43c5.86,11.08 24.04,40.82 24.04,40.82 -1.29,-116.14 67.97,-114.59 19.14,-209.61l-0.04 0.12c-11.94,42.5 -67.92,121.8 -43.14,168.67z"/>
  </g>
 </g>
</svg>
