<?xml version="1.0" encoding="UTF-8"?>
<!DOCTYPE svg PUBLIC "-//W3C//DTD SVG 1.1//EN" "http://www.w3.org/Graphics/SVG/1.1/DTD/svg11.dtd">
<!-- Creator: CorelDRAW 2019 (64-Bit) -->
<svg xmlns="http://www.w3.org/2000/svg" xml:space="preserve" width="0.888976in" height="0.895669in" version="1.1" style="shape-rendering:geometricPrecision; text-rendering:geometricPrecision; image-rendering:optimizeQuality; fill-rule:evenodd; clip-rule:evenodd"
viewBox="0 0 888.98 895.67"
 xmlns:xlink="http://www.w3.org/1999/xlink"
 xmlns:xodm="http://www.corel.com/coreldraw/odm/2003">
 <defs>
  <style type="text/css">
   <![CDATA[
    .fil0 {fill:white;fill-rule:nonzero}
   ]]>
  </style>
 </defs>
 <g id="Layer_x0020_1">
  <metadata id="CorelCorpID_0Corel-Layer"/>
  <path class="fil0" d="M442.31 437.08c7.13,0 12.93,5.8 12.93,12.93 0,7.12 -5.8,12.92 -12.93,12.92 -7.12,0 -12.92,-5.8 -12.92,-12.92 0,-7.13 5.8,-12.93 12.92,-12.93z"/>
  <path class="fil0" d="M442.31 437.08c7.13,0 12.93,5.8 12.93,12.93 0,7.12 -5.8,12.92 -12.93,12.92 -7.12,0 -12.93,-5.8 -12.93,-12.92 0,-7.13 5.81,-12.93 12.93,-12.93z"/>
  <path class="fil0" d="M739.64 824.89l0 -155.12c42.8,0 77.56,34.77 77.56,77.56 0,42.76 -34.76,77.56 -77.56,77.56zm-413.69 -77.56c0,-42.79 34.8,-77.56 77.56,-77.56l310.28 0 0 25.85 -258.97 0c-10.77,-8.02 -23.96,-12.93 -38.38,-12.93 -35.63,0 -64.63,29 -64.63,64.63 0,35.64 29,64.63 64.63,64.63 24.69,0 45.91,-14.04 56.78,-34.39l0.37 1.02c6.66,19.98 25.26,33.37 46.3,33.37 15.51,0 29.74,-7.35 38.78,-19.22 9.05,11.87 23.24,19.22 38.78,19.22 15.55,0 29.74,-7.35 38.78,-19.22 9.05,11.87 23.24,19.22 38.78,19.22 15.55,0 29.74,-7.35 38.79,-19.22l0 32.15 -310.28 0c-42.76,0 -77.56,-34.8 -77.56,-77.56zm129.26 -129.26l232.68 0 0 25.85 -232.68 0 0 -25.85zm-103.41 -36.82c0,-0.6 0.07,-1.19 0.16,-1.8l6.5 -38.98 96.75 0 0 51.74 -92.43 0c-6.04,0 -10.98,-4.93 -10.98,-10.96zm-29 -251.77c-34.93,-46.61 -82.23,-82.04 -136.76,-102.49 -9.11,-3.42 -15.21,-12.23 -15.21,-21.94l0 -3.08c0,-13.95 12.4,-25.09 26.55,-23.24l29.44 3.94c87.53,11.67 163,70.14 196.82,150.98l-35.04 0c-12.67,0 -23.41,9.08 -25.49,21.61l-3.81 22.87 -36.49 -48.65zm-89.53 417.86l15.12 0 0 19.39 -18.09 13.56c-7.83,5.9 -16.6,10.44 -25.86,13.63l-44.08 -253.4 12.67 0 34.84 185.75c2.28,12.2 13,21.07 25.41,21.07zm-135.56 12.43l-4.81 -6.76c-16.67,-23.33 -25.49,-50.84 -25.49,-79.54 0,-32.65 11.71,-64.28 32.95,-89.06l34.41 -40.14 44.21 254.38c-1.62,0.11 -3.28,0.41 -4.94,0.41 -30.22,0 -58.76,-14.69 -76.33,-39.28zm-30.3 -238.91c0,-3.41 2.79,-6.23 6.2,-6.23l44.91 0 0.37 8.42 -26.62 31.05 -23.5 -29.36c-0.89,-1.1 -1.36,-2.49 -1.36,-3.88zm40.54 -238.91l9.37 206.82 -24.06 0 0 -206.82 14.69 0zm-40.54 -25.86l0 -28.87 39.11 23.47 0.24 5.4 -39.35 0zm0 -77.56c0,-57.01 46.41,-103.42 103.42,-103.42l0 83.7c-15.25,8.42 -25.86,24.6 -25.86,43.15l0 3.05c0,18.17 10.19,34.76 25.86,43.32l0 266.29 -26.41 0 -12.07 -265.13c-0.39,-8.68 -5.06,-16.51 -12.52,-20.98l-52.41 -31.46 0 -18.53zm211.67 -33.97l-8.46 21.15c-13.15,-3.88 -26.62,-6.83 -40.4,-8.69l-29.44 -3.91c-1.39,-0.2 -2.71,-0.03 -4.1,-0.09l0 -45.08 82.4 36.63zm124.43 88.27c0,5.47 -0.87,10.87 -2.58,16.04l-0.11 0.33c-28.77,-32.85 -65.02,-58.67 -105.76,-74.98l7.66 -19.16 70.66 31.39c18.33,8.15 30.13,26.35 30.13,46.37zm181 74.97c14.25,0 25.86,11.6 25.86,25.86l0 51.7 -25.86 0 0 -25.85c0,-14.25 -11.59,-25.85 -25.85,-25.85 0,-14.26 11.59,-25.86 25.85,-25.86zm155.12 155.12l-77.56 0 0 -25.85 77.56 0 0 25.85zm-103.41 0l-51.71 0 0 -51.7 51.71 0 0 51.7zm-77.56 0l-77.56 0 0 -51.7 77.56 0 0 51.7zm-77.56 103.45l77.56 0 0 25.85 -77.56 0 0 -25.85zm-101.1 -155.16l75.2 0 0 103.42 -92.43 0 17.23 -103.42zm178.66 129.3l-77.56 0 0 -51.7 77.56 0 0 51.7zm0 -155.16l-174.38 0 4.31 -25.85 170.07 0 0 25.85zm232.68 136.26l-82.33 70.6 -124.5 0 0 -103.44 206.83 0 0 32.85zm-42.63 70.6l42.63 -36.56 0 36.56 -42.63 0zm-53.4 180.98c-3.81,7.75 -11.5,12.93 -20.32,12.93 -8.81,0 -16.51,-5.18 -20.35,-12.93l40.67 0zm-77.56 0c-3.81,7.75 -11.5,12.93 -20.32,12.93 -8.85,0 -16.51,-5.18 -20.35,-12.93l40.67 0zm-77.56 0c-3.81,7.75 -11.5,12.93 -20.32,12.93 -8.85,0 -16.51,-5.18 -20.35,-12.93l40.67 0zm173.58 -25.85l-232.68 0c0,-9.22 -2.03,-17.93 -5.51,-25.85l238.19 0 0 25.85zm-258.57 0c0,21.38 -17.37,38.78 -38.78,38.78 -21.38,0 -38.79,-17.4 -38.79,-38.78 0,-21.37 17.41,-38.78 38.79,-38.78 21.41,0 38.78,17.4 38.78,38.78zm284.42 -103.41l-25.85 0 0 -25.85 77.56 0c14.25,0 25.85,-11.6 25.85,-25.86l0 -103.44c0,-14.25 -11.59,-25.85 -25.85,-25.85l-25.86 0 0 -25.85c0,-14.25 -11.6,-25.85 -25.85,-25.85l-77.56 0c0,-14.25 -11.59,-25.86 -25.85,-25.86l0 -51.7c0,-28.51 -23.2,-51.7 -51.71,-51.7 -28.54,0 -51.7,23.2 -51.7,51.7l-81.53 0c-8.02,-21.44 -18.5,-41.7 -31.3,-60.16l5.48 -16.44c2.58,-7.79 3.91,-15.94 3.91,-24.22 0,-30.23 -17.83,-57.7 -45.47,-70l-187.2 -83.2 0 -4.51c0,-14.25 -11.61,-25.85 -25.86,-25.85 -71.3,0 -129.26,57.97 -129.26,129.26l0 18.53 0 59.03c0,14.26 11.6,25.86 25.85,25.86l0 207.49c-14.71,2.87 -25.85,15.84 -25.85,31.42 0,7.25 2.48,14.35 7.03,20.05l26.78 33.51c-21.78,28.34 -33.8,63.14 -33.8,99.04 0,34.13 10.48,66.82 30.29,94.59l4.81 6.73c22.41,31.39 58.83,50.11 97.37,50.11 25.72,0 51.22,-8.48 71.8,-23.93l18.03 -13.56c6.49,-4.84 10.37,-12.59 10.37,-20.68l0 -19.39c0,-14.25 -11.6,-25.85 -25.86,-25.85l-15.15 0 -36.56 -195.13 0 -266.86c41.59,19.33 77.76,48.56 105.46,85.45l51.28 68.41 -26.94 161.85c-0.34,1.99 -0.54,4.01 -0.54,6.04 0,20.31 16.51,36.82 36.83,36.82l66.58 0 0 25.85 -25.85 0c-57.01,0 -103.42,46.4 -103.42,103.41 0,57.01 46.41,103.42 103.42,103.42l336.13 0c57.01,0 103.42,-46.41 103.42,-103.42 0,-57.01 -46.41,-103.41 -103.42,-103.41z"/>
 </g>
</svg>
