<?xml version="1.0" encoding="UTF-8"?>
<!DOCTYPE svg PUBLIC "-//W3C//DTD SVG 1.1//EN" "http://www.w3.org/Graphics/SVG/1.1/DTD/svg11.dtd">
<!-- Creator: CorelDRAW 2019 (64-Bit) -->
<svg xmlns="http://www.w3.org/2000/svg" xml:space="preserve" width="0.888976in" height="0.895669in" version="1.1" style="shape-rendering:geometricPrecision; text-rendering:geometricPrecision; image-rendering:optimizeQuality; fill-rule:evenodd; clip-rule:evenodd"
viewBox="0 0 888.98 895.67"
 xmlns:xlink="http://www.w3.org/1999/xlink"
 xmlns:xodm="http://www.corel.com/coreldraw/odm/2003">
 <defs>
  <style type="text/css">
   <![CDATA[
    .fil0 {fill:white;fill-rule:nonzero}
   ]]>
  </style>
 </defs>
 <g id="Layer_x0020_1">
  <metadata id="CorelCorpID_0Corel-Layer"/>
  <g id="_2560416465760">
   <path class="fil0" d="M147.57 773.81c9.47,0 17.17,7.7 17.17,17.17 0,9.51 -7.7,17.21 -17.17,17.21 -9.51,0 -17.18,-7.7 -17.18,-17.21 0,-9.47 7.67,-17.17 17.18,-17.17z"/>
   <path class="fil0" d="M486.69 773.81c9.47,0 17.17,7.7 17.17,17.17 0,9.51 -7.7,17.21 -17.17,17.21 -9.51,0 -17.18,-7.7 -17.18,-17.21 0,-9.47 7.67,-17.17 17.18,-17.17z"/>
   <path class="fil0" d="M800.76 466.55l-43.56 0 -14.97 -57.69 36.76 -33.39 36.78 33.39 -15.01 57.69zm-52.52 -114.15c0,-16.97 13.78,-30.74 30.75,-30.74 16.96,0 30.76,13.77 30.76,30.74 0,5.41 -1.44,10.71 -4.12,15.31l-11.28 -10.23c-8.75,-7.97 -21.96,-7.97 -30.74,0l-11.28 10.26c-2.68,-4.6 -4.09,-9.84 -4.09,-15.34zm-252.96 114.85l-10.08 -52.7 0.81 -1.41 41.99 28.52 -19.82 25.6 -12.9 0zm-45.22 85.64l54.2 49.03c5.96,5.38 13.66,8.33 21.69,8.33l47.07 0 0 49.81 -192.15 0 0 -169.17 58.54 0 0 37.99c0,9.15 3.89,17.87 10.65,24.01zm-198.43 130.81l131 0 0 31.05 -131 0 0 -31.05zm287.68 107.29c0,29.03 -23.61,52.62 -52.61,52.62 -29,0 -52.61,-23.59 -52.61,-52.62 0,-28.99 23.61,-52.57 52.61,-52.57 29,0 52.61,23.59 52.61,52.57zm-444.34 0c0,-28.99 23.61,-52.57 52.61,-52.57 29,0 52.61,23.59 52.61,52.57 0,29.03 -23.61,52.62 -52.61,52.62 -29,0 -52.61,-23.59 -52.61,-52.62zm121.88 31.85l200.58 0c3.55,7.7 8.36,14.69 14.14,20.76l-228.85 0c5.78,-6.08 10.59,-13.06 14.13,-20.76zm214.72 -84.43c-5.78,6.05 -10.59,13.06 -14.14,20.76l-107.63 0c-6.56,0 -11.85,5.29 -11.85,11.81 0,6.53 5.3,11.83 11.85,11.83l101.1 0c-0.6,5.38 -0.6,11.01 0,16.36l-187.52 0c0.6,-5.35 0.6,-10.98 0,-16.36l31.25 0c6.53,0 11.83,-5.3 11.83,-11.83 0,-6.52 -5.3,-11.81 -11.83,-11.81l-37.78 0c-3.57,-7.7 -8.35,-14.71 -14.13,-20.76l228.85 0zm-333.58 -247.53l68.13 0 0 169.17 -96.61 0 28.49 -169.17zm46.8 -70.75c6.52,-1.41 12.54,-4.2 17.72,-8.12l98.72 108.13c-8.94,7.44 -15.61,17.5 -18.92,29.12l-52.55 0 0 -59.17c0,-12.6 -10.26,-22.86 -22.86,-22.86l-22.11 0 0 -47.11zm-31.28 -44.33c0,-12 9.75,-21.75 21.72,-21.75 11.97,0 21.72,9.75 21.72,21.75 0,11.97 -9.75,21.72 -21.72,21.72 -11.97,0 -21.72,-9.74 -21.72,-21.72zm547.03 -319.36c8.94,0 16.81,5.45 20.12,13.51l-19.76 23.8c-1.46,1.78 -2.64,3.79 -3.45,5.89 -10.5,-1.5 -18.62,-10.56 -18.62,-21.48 0,-11.97 9.74,-21.72 21.72,-21.72zm91.57 9.11c13.3,9.02 17.65,26.56 10.17,40.76l-21.66 41.21 -59.86 -40.67 29.38 -35.34c10.41,-12.57 28.46,-15.13 41.97,-5.96zm57.66 58.02c0,16.97 -13.8,30.77 -30.76,30.77 -4.76,0 -9.39,-1.11 -13.57,-3.19l17.78 -33.81c3.82,-7.22 5.87,-14.94 6.29,-22.65 11.79,4.3 20.27,15.61 20.27,28.88zm-45.74 52.31c4.81,1.38 9.86,2.11 14.98,2.11 5.41,0 10.64,-0.81 15.58,-2.28l0 124.56c-4.94,-1.48 -10.17,-2.29 -15.58,-2.29 -5.21,0 -10.23,0.75 -14.98,2.14l0 -124.23zm-54.39 -11.16l-58.83 11.22 30.62 -40.04 32.34 21.96 -4.13 6.85zm-255.62 302.52l13 -21.96 4.19 21.96 -17.18 0zm104.35 -170.41l34.08 -44.57 14.86 77.81 -48.94 -33.24zm-13.98 19.1l49.24 33.45 -78.75 15.04c0,0 25.66,-42.86 29.51,-48.49zm-187.16 174.16l0 59.17 -1.3 0c-5.32,-18.55 -19.46,-33.08 -37.14,-39.37l312.01 -397.5c7.97,6.91 18.38,11.16 29.75,11.16 0.18,0 0.39,-0.04 0.57,-0.04l-125.55 164.18c-8.12,10.61 -15.7,21.86 -22.53,33.38l-86.51 146.17 -46.44 0c-12.6,0 -22.86,10.26 -22.86,22.86zm-58.08 40.07c13.41,0 25.44,7.64 31.43,19.1l-62.93 0c5.9,-11.46 17.81,-19.1 31.5,-19.1zm-109.37 42.78l167.45 0 0 87.11 -167.45 0 0 -87.11zm352.74 -150.04l-44.4 -30.17 0.69 -1.14 79.78 -15.25 -36.07 46.56zm83.81 -119.39l-14.62 -76.43 1.05 -1.35 42.81 29.09 -29.24 48.7zm41.41 -69.03l-40.6 -27.58 2.11 -2.74 64.07 -12.24 -25.57 42.56zm164.3 157.17l-8.63 -7.83c6.46,-9.11 10.01,-20.09 10.01,-31.43 0,-14.59 -5.78,-27.85 -15.19,-37.63l0 -153.53c9.41,-9.8 15.19,-23.07 15.19,-37.66 0,-28 -21.23,-51.11 -48.46,-54.08 -4.06,-9.24 -10.65,-17.44 -19.55,-23.49 -21.6,-14.68 -49.81,-12.21 -68.46,5.08 -8.37,-11.25 -21.69,-18.31 -36.4,-18.31 -25.02,0 -45.36,20.36 -45.36,45.39 0,3.91 0.49,7.7 1.42,11.31l-336.36 190.55c-5.65,3.22 -7.67,10.44 -4.45,16.13 3.25,5.75 10.56,7.64 16.12,4.45l289.73 -164.15 -292.43 370.88c-2.17,0.37 -4.27,0.82 -6.35,1.42l-105.67 -115.72c2.2,-5.32 3.43,-11.16 3.43,-17.23 0,-3.91 -0.51,-7.71 -1.44,-11.31l66.87 -37.9c5.69,-3.22 7.7,-10.44 4.48,-16.13 -3.22,-5.69 -10.44,-7.67 -16.13,-4.45l-66.9 37.9c-8.24,-8.33 -19.67,-13.5 -32.28,-13.5 -25.02,0 -45.36,20.36 -45.36,45.36 0,20.12 13.11,37.21 31.28,43.13l0 48.34 -23.82 0c-11.22,0 -20.7,8 -22.56,19.07l-29.36 174.4c-0.99,5.71 0.63,11.54 4.37,16 3.76,4.43 9.26,6.98 15.07,6.98l163.16 0 0 31.05 -80.41 0c-42.06,0 -76.25,34.2 -76.25,76.24 0,42.06 34.2,76.25 76.25,76.25l339.12 0c42.06,0 76.25,-34.2 76.25,-76.25 0,-42.04 -34.2,-76.24 -76.25,-76.24l-80.41 0 0 -31.05 167.52 0c12.63,0 22.88,-10.26 22.88,-22.86l0 -105.61c0,-6.53 -5.3,-11.83 -11.85,-11.83 -6.52,0 -11.82,5.3 -11.82,11.83l0 31.37 -47.07 0c-2.17,0 -4.21,-0.81 -5.84,-2.25l-54.17 -49.04c-1.83,-1.62 -2.86,-3.96 -2.86,-6.44l0 -37.99 109.94 0 0 9.45c0,6.52 5.3,11.82 11.82,11.82 6.56,0 11.85,-5.3 11.85,-11.82l0 -10.23c0,-12.6 -10.26,-22.86 -22.88,-22.86l-35.71 0 65.52 -84.62c10.26,-13.2 19.55,-27.43 27.91,-41.87l102.06 -170.01c2.17,0.83 4.43,1.35 6.74,1.48l0 141.94c-9.74,9.84 -15.76,23.35 -15.76,38.23 0,11.31 3.58,22.32 10.02,31.43l-8.64 7.83c-6.32,5.74 -8.9,14.44 -6.77,22.71l15.28 58.75c2.62,10.08 11.73,17.09 22.15,17.09l9.87 0 0 3.37c0,6.68 -3.52,12.82 -9.41,16.39 -12.94,7.79 -20.52,22.02 -19.83,37.13 0.96,20.99 18.14,38.2 39.14,39.16 11.28,0.51 22.13,-3.52 30.32,-11.34 8.21,-7.85 12.72,-18.41 12.72,-29.75 0,-6.53 -5.3,-11.83 -11.83,-11.83 -6.52,0 -11.82,5.3 -11.82,11.83 0.21,9.71 -8.6,18.11 -18.31,17.44 -8.76,-0.39 -16.18,-7.85 -16.61,-16.6 -0.3,-6.44 2.95,-12.48 8.43,-15.79 12.87,-7.8 20.85,-21.85 20.85,-36.64l0 -3.34 11.25 0c10.41,0 19.52,-7.03 22.14,-17.11l15.28 -58.75c2.13,-8.27 -0.45,-16.97 -6.77,-22.71z"/>
   <path class="fil0" d="M413.48 580.9c-6.53,0 -11.83,5.3 -11.83,11.82 0,6.53 5.3,11.85 11.83,11.85l21.96 0c6.53,0 11.83,-5.32 11.83,-11.85 0,-6.52 -5.3,-11.82 -11.83,-11.82l-21.96 0z"/>
  </g>
 </g>
</svg>
