<?xml version="1.0" encoding="UTF-8"?>
<!DOCTYPE svg PUBLIC "-//W3C//DTD SVG 1.1//EN" "http://www.w3.org/Graphics/SVG/1.1/DTD/svg11.dtd">
<!-- Creator: CorelDRAW 2019 (64-Bit) -->
<svg xmlns="http://www.w3.org/2000/svg" xml:space="preserve" width="0.888976in" height="0.895669in" version="1.1" style="shape-rendering:geometricPrecision; text-rendering:geometricPrecision; image-rendering:optimizeQuality; fill-rule:evenodd; clip-rule:evenodd"
viewBox="0 0 888.98 895.67"
 xmlns:xlink="http://www.w3.org/1999/xlink"
 xmlns:xodm="http://www.corel.com/coreldraw/odm/2003">
 <defs>
  <style type="text/css">
   <![CDATA[
    .fil0 {fill:white;fill-rule:nonzero}
   ]]>
  </style>
 </defs>
 <g id="Layer_x0020_1">
  <metadata id="CorelCorpID_0Corel-Layer"/>
  <g id="_2560413464176">
   <path class="fil0" d="M442.31 130.61c-9.81,0 -17.74,-7.96 -17.74,-17.74l0 -70.99c0,-9.79 7.93,-17.74 17.74,-17.74 9.81,0 17.74,7.96 17.74,17.74l0 70.99c0,9.78 -7.93,17.74 -17.74,17.74z"/>
   <path class="fil0" d="M680.73 229.33c-4.54,0 -9.09,-1.74 -12.56,-5.18 -6.92,-6.92 -6.92,-18.18 0,-25.1l50.19 -50.19c6.91,-6.91 18.15,-6.91 25.07,0 6.94,6.94 6.94,18.19 0,25.1l-50.16 50.19c-3.44,3.44 -7.99,5.18 -12.54,5.18z"/>
   <path class="fil0" d="M850.43 467.75l-70.99 0c-9.78,0 -17.74,-7.96 -17.74,-17.74 0,-9.81 7.96,-17.74 17.74,-17.74l70.99 0c9.81,0 17.74,7.93 17.74,17.74 0,9.79 -7.94,17.74 -17.74,17.74z"/>
   <path class="fil0" d="M730.91 756.35c-4.55,0 -9.09,-1.74 -12.57,-5.19l-50.19 -50.19c-6.92,-6.92 -6.92,-18.15 0,-25.09 6.94,-6.91 18.18,-6.91 25.09,0l50.19 50.19c6.91,6.91 6.91,18.18 0,25.09 -3.44,3.44 -7.99,5.19 -12.53,5.19z"/>
   <path class="fil0" d="M442.31 875.86c-9.81,0 -17.74,-7.96 -17.74,-17.74l0 -70.99c0,-9.78 7.93,-17.74 17.74,-17.74 9.81,0 17.74,7.96 17.74,17.74l0 70.99c0,9.78 -7.93,17.74 -17.74,17.74z"/>
   <path class="fil0" d="M153.72 756.35c-4.54,0 -9.09,-1.74 -12.56,-5.19 -6.91,-6.91 -6.91,-18.18 0,-25.09l50.19 -50.19c6.91,-6.91 18.16,-6.91 25.07,0 6.94,6.94 6.94,18.18 0,25.09l-50.16 50.19c-3.44,3.44 -7.99,5.19 -12.54,5.19z"/>
   <path class="fil0" d="M105.17 467.75l-70.99 0c-9.79,0 -17.74,-7.96 -17.74,-17.74 0,-9.81 7.96,-17.74 17.74,-17.74l70.99 0c9.81,0 17.74,7.93 17.74,17.74 0,9.79 -7.93,17.74 -17.74,17.74z"/>
   <path class="fil0" d="M203.91 229.33c-4.56,0 -9.1,-1.74 -12.57,-5.18l-50.14 -50.19c-6.94,-6.91 -6.94,-18.16 0,-25.1 6.92,-6.91 18.15,-6.91 25.07,0l50.19 50.19c6.92,6.92 6.92,18.18 0,25.1 -3.47,3.44 -8.01,5.18 -12.56,5.18z"/>
   <path class="fil0" d="M318.11 450l106.46 0c5.15,0 9.98,2.23 13.34,6.06 3.39,3.8 4.93,8.95 4.27,14.02l-22.76 171.7 149.66 -227.26 -109.03 0c-5.2,0 -10.14,-2.29 -13.55,-6.28 -3.37,-4 -4.83,-9.28 -3.94,-14.38l23.53 -141.18 -147.98 197.32zm73.57 283.9c-2.09,0 -4.15,-0.36 -6.22,-1.1 -7.77,-2.9 -12.48,-10.78 -11.37,-18.95l30.27 -228.37 -121.73 0c-6.72,0 -12.87,-3.8 -15.87,-9.78 -3.03,-6.01 -2.37,-13.22 1.65,-18.59l212.93 -283.93c4.94,-6.58 13.7,-8.93 21.19,-5.68 7.52,3.22 11.9,11.16 10.55,19.23l-32.09 192.28 121.02 0c6.53,0 12.53,3.61 15.62,9.34 3.08,5.76 2.78,12.7 -0.78,18.2l-210.35 319.41c-3.36,5.07 -9,7.93 -14.82,7.93z"/>
  </g>
 </g>
</svg>
