<svg width="86" height="86" viewBox="0 0 86 86" fill="none" xmlns="http://www.w3.org/2000/svg">
<path d="M14.1669 74.2856C15.076 74.2856 15.8152 75.0248 15.8152 75.9339C15.8152 76.8468 15.076 77.586 14.1669 77.586C13.2539 77.586 12.5176 76.8468 12.5176 75.9339C12.5176 75.0248 13.2539 74.2856 14.1669 74.2856Z" fill="#4280EB"/>
<path d="M46.722 74.2856C47.6311 74.2856 48.3703 75.0248 48.3703 75.9339C48.3703 76.8468 47.6311 77.586 46.722 77.586C45.8091 77.586 45.0728 76.8468 45.0728 75.9339C45.0728 75.0248 45.8091 74.2856 46.722 74.2856Z" fill="#4280EB"/>
<path d="M76.8727 44.7887H72.6909L71.2538 39.2505L74.7828 36.0451L78.3136 39.2505L76.8727 44.7887ZM71.8308 33.8304C71.8308 32.2013 73.1536 30.8794 74.7828 30.8794C76.4109 30.8794 77.7357 32.2013 77.7357 33.8304C77.7357 34.3497 77.5975 34.8585 77.3402 35.3001L76.2573 34.3181C75.4173 33.553 74.1492 33.553 73.3063 34.3181L72.2234 35.303C71.9661 34.8614 71.8308 34.3584 71.8308 33.8304ZM47.5467 44.8559L46.579 39.7968L46.6568 39.6614L50.6878 42.3993L48.7851 44.8569H47.5467V44.8559ZM43.2056 53.0773L48.4088 57.7842C48.981 58.3007 49.7202 58.5839 50.491 58.5839H55.0097V63.3656H36.5634V47.1254H42.1832V50.7724C42.1832 51.6508 42.5567 52.4879 43.2056 53.0773ZM24.1564 65.635H36.7324V68.6158H24.1564V65.635ZM51.7736 75.9348C51.7736 78.7217 49.507 80.9863 46.723 80.9863C43.9391 80.9863 41.6725 78.7217 41.6725 75.9348C41.6725 73.1518 43.9391 70.8881 46.723 70.8881C49.507 70.8881 51.7736 73.1528 51.7736 75.9348ZM9.11714 75.9348C9.11714 73.1518 11.3837 70.8881 14.1677 70.8881C16.9517 70.8881 19.2182 73.1528 19.2182 75.9348C19.2182 78.7217 16.9517 80.9863 14.1677 80.9863C11.3837 80.9863 9.11714 78.7217 9.11714 75.9348ZM20.8176 78.9924H40.0732C40.414 79.7316 40.8757 80.4027 41.4306 80.9854H19.4611C20.016 80.4017 20.4777 79.7316 20.8176 78.9924ZM41.4306 70.8872C40.8757 71.468 40.414 72.1409 40.0732 72.8801H29.7407C29.111 72.8801 28.6031 73.388 28.6031 74.0139C28.6031 74.6408 29.1119 75.1496 29.7407 75.1496H39.4463C39.3887 75.666 39.3887 76.2065 39.4463 76.7201H21.4444C21.502 76.2065 21.502 75.666 21.4444 75.1496H24.4444C25.0713 75.1496 25.5801 74.6408 25.5801 74.0139C25.5801 73.388 25.0713 72.8801 24.4444 72.8801H20.8176C20.4748 72.1409 20.016 71.468 19.4611 70.8872H41.4306ZM9.40706 47.1244H15.9475V63.3647H6.67299L9.40802 47.1244H9.40706ZM13.8998 40.3324C14.5258 40.1971 15.1037 39.9292 15.6009 39.5529L25.078 49.9334C24.2198 50.6476 23.5795 51.6134 23.2617 52.7289H18.2169V47.0486C18.2169 45.839 17.232 44.854 16.0224 44.854H13.8998V40.3315V40.3324ZM10.897 36.0768C10.897 34.9248 11.833 33.9888 12.9821 33.9888C14.1312 33.9888 15.0672 34.9248 15.0672 36.0768C15.0672 37.2259 14.1312 38.1619 12.9821 38.1619C11.833 38.1619 10.897 37.2269 10.897 36.0768ZM63.4116 5.41836C64.2698 5.41836 65.0254 5.94156 65.3431 6.71531L63.4462 9.0001C63.306 9.17098 63.1927 9.36394 63.115 9.56554C62.107 9.42154 61.3275 8.55179 61.3275 7.50347C61.3275 6.35436 62.2625 5.41836 63.4126 5.41836H63.4116ZM72.2023 6.29292C73.4791 7.15883 73.8967 8.84266 73.1786 10.2059L71.0993 14.162L65.3527 10.2577L68.1732 6.86507C69.1725 5.65836 70.9053 5.4126 72.2023 6.29292ZM77.7376 11.8628C77.7376 13.4919 76.4128 14.8167 74.7847 14.8167C74.3277 14.8167 73.8832 14.7102 73.482 14.5105L75.1888 11.2647C75.5556 10.5716 75.7524 9.8305 75.7927 9.09034C76.9245 9.50314 77.7386 10.5889 77.7386 11.8628H77.7376ZM73.3466 16.8845C73.8084 17.017 74.2932 17.0871 74.7847 17.0871C75.304 17.0871 75.8061 17.0093 76.2804 16.8682V28.8259C75.8061 28.6839 75.304 28.6061 74.7847 28.6061C74.2845 28.6061 73.8026 28.6781 73.3466 28.8115V16.8855V16.8845ZM68.1252 15.8132L62.4775 16.8903L65.417 13.0465L68.5217 15.1546L68.1252 15.8122V15.8132ZM43.5858 44.855L44.8338 42.7468L45.236 44.855H43.5867H43.5858ZM53.6033 28.4957L56.875 24.217L58.3016 31.6867L53.6033 28.4957ZM52.2613 30.3293L56.9883 33.5405L49.4283 34.9843C49.4283 34.9843 51.8917 30.8698 52.2613 30.3293ZM34.294 47.0486V52.7289H34.1692C33.6585 50.9481 32.301 49.5532 30.6038 48.9494L60.5566 10.7895C61.3217 11.4529 62.3211 11.8609 63.4126 11.8609C63.4299 11.8609 63.45 11.8571 63.4673 11.8571L51.4145 27.6183C50.635 28.6368 49.9074 29.7168 49.2517 30.8227L40.9468 44.855H36.4885C35.2789 44.855 34.294 45.8399 34.294 47.0495V47.0486ZM28.7183 50.8953C30.0057 50.8953 31.1606 51.6287 31.7356 52.7289H25.6943C26.2607 51.6287 27.4041 50.8953 28.7183 50.8953ZM18.2189 55.0021H34.294V63.3647H18.2189V55.0021ZM52.0817 40.5984L47.8194 37.7021L47.8856 37.5926L55.5444 36.1286L52.0817 40.5984ZM60.1275 29.137L58.724 21.7997L58.8248 21.6701L62.9345 24.4628L60.1275 29.1379V29.137ZM64.1028 22.5101L60.2052 19.8625L60.4078 19.5994L66.5585 18.4244L64.1038 22.5101H64.1028ZM79.8755 37.5984L79.0471 36.8467C79.6672 35.9721 80.008 34.9181 80.008 33.8294C80.008 32.4288 79.4531 31.1558 78.5498 30.217V15.4782C79.4531 14.5374 80.008 13.2634 80.008 11.8628C80.008 9.17482 77.9699 6.95627 75.3559 6.67115C74.9661 5.78412 74.3335 4.99692 73.4791 4.41612C71.4055 3.00685 68.6973 3.24397 66.907 4.9038C66.1034 3.82381 64.8247 3.14605 63.4126 3.14605C61.0107 3.14605 59.058 5.1006 59.058 7.50347C59.058 7.87883 59.1051 8.24267 59.1943 8.58923L26.9039 26.8819C26.3615 27.1911 26.1676 27.8842 26.4767 28.4304C26.7887 28.9824 27.4905 29.1639 28.0243 28.8576L55.8382 13.0993L27.7651 48.7036C27.5567 48.7391 27.3551 48.7823 27.1555 48.8399L17.0112 37.7309C17.2224 37.2201 17.3405 36.6595 17.3405 36.0768C17.3405 35.7014 17.2915 35.3366 17.2022 34.991L23.6217 31.3526C24.1679 31.0435 24.3609 30.3504 24.0518 29.8042C23.7427 29.2579 23.0496 29.0679 22.5033 29.377L16.0809 33.0154C15.2899 32.2157 14.1926 31.7194 12.9821 31.7194C10.5802 31.7194 8.62754 33.6739 8.62754 36.0739C8.62754 38.0054 9.88609 39.646 11.6304 40.2144V44.855H9.3437C8.26658 44.855 7.3565 45.623 7.17795 46.6857L4.3594 63.428C4.26436 63.9762 4.41988 64.5359 4.77892 64.964C5.13987 65.3893 5.66787 65.6341 6.22563 65.6341H21.8889V68.6149H14.1696C10.1319 68.6149 6.84963 71.8981 6.84963 75.9339C6.84963 79.9716 10.1328 83.2538 14.1696 83.2538H46.725C50.7627 83.2538 54.0449 79.9707 54.0449 75.9339C54.0449 71.8981 50.7617 68.6149 46.725 68.6149H39.0056V65.6341H55.0875C56.3 65.6341 57.284 64.6491 57.284 63.4395V53.301C57.284 52.6741 56.7752 52.1654 56.1464 52.1654C55.5204 52.1654 55.0116 52.6741 55.0116 53.301V56.3125H50.4929C50.2846 56.3125 50.0888 56.2348 49.9323 56.0965L44.732 51.3887C44.5563 51.2332 44.4575 51.0086 44.4575 50.7705V47.1235H55.0116V48.0306C55.0116 48.6566 55.5204 49.1654 56.1464 49.1654C56.7761 49.1654 57.284 48.6566 57.284 48.0306V47.0486C57.284 45.839 56.299 44.854 55.0875 44.854H51.6593L57.9492 36.7305C58.9342 35.4633 59.826 34.0973 60.6286 32.711L70.4263 16.3901C70.6346 16.4698 70.8516 16.5197 71.0733 16.5322V30.1584C70.1383 31.103 69.5604 32.4 69.5604 33.8285C69.5604 34.9142 69.9041 35.9712 70.5223 36.8457L69.6929 37.5974C69.0861 38.1485 68.8385 38.9837 69.0429 39.7776L70.5098 45.4175C70.7613 46.3852 71.6359 47.0582 72.6362 47.0582H73.5837V47.3817C73.5837 48.023 73.2458 48.6124 72.6804 48.9551C71.4381 49.703 70.7105 51.069 70.7767 52.5196C70.8689 54.5346 72.5181 56.1868 74.5341 56.2789C75.617 56.3279 76.6586 55.941 77.4448 55.1903C78.233 54.4367 78.6659 53.4229 78.6659 52.3343C78.6659 51.7074 78.1571 51.1986 77.5303 51.1986C76.9043 51.1986 76.3956 51.7074 76.3956 52.3343C76.4157 53.2665 75.57 54.0729 74.6378 54.0085C73.7968 53.9711 73.0845 53.2549 73.0432 52.4149C73.0144 51.7967 73.3264 51.2169 73.8525 50.8991C75.088 50.1503 75.8541 48.8015 75.8541 47.3817V47.0611H76.9341C77.9335 47.0611 78.808 46.3862 79.0595 45.4185L80.5264 39.7785C80.7309 38.9846 80.4832 38.1494 79.8765 37.5984H79.8755Z" fill="#4280EB"/>
<path d="M39.6938 55.7663C39.0669 55.7663 38.5581 56.2751 38.5581 56.901C38.5581 57.5279 39.0669 58.0386 39.6938 58.0386H41.8019C42.4288 58.0386 42.9376 57.5279 42.9376 56.901C42.9376 56.2751 42.4288 55.7663 41.8019 55.7663H39.6938Z" fill="#4280EB"/>
</svg>
