<svg width="86" height="86" viewBox="0 0 86 86" fill="none" xmlns="http://www.w3.org/2000/svg">
<path d="M33.3263 25.8365C33.9628 25.561 34.2546 24.8218 33.9762 24.1882L29.4249 13.7041C28.6194 11.8407 26.9433 10.5323 24.9388 10.2059C22.9401 9.88234 20.9318 10.587 19.5772 12.099L10.848 21.8439C10.3853 22.3575 10.4323 23.1524 10.9459 23.6141C11.4595 24.0768 12.2544 24.0336 12.7161 23.5162L21.4454 13.7722C22.2239 12.9015 23.3769 12.4906 24.5356 12.6807C25.7087 12.8708 26.6495 13.6081 27.1228 14.7015L31.677 25.1856C31.9516 25.825 32.6975 26.1111 33.3253 25.8365H33.3263Z" fill="#4280EB"/>
<path d="M23.7648 20.4231C23.4298 20.354 23.087 20.4231 22.8048 20.6161L13.7866 26.7581C13.2154 27.1469 13.0656 27.9283 13.4573 28.5015C13.8471 29.0727 14.6247 29.2195 15.1988 28.8307L23.1418 23.4202L28.7328 32.2752C29.1053 32.8656 29.8809 33.0365 30.4627 32.6698C31.0473 32.3002 31.224 31.5245 30.8544 30.9398L24.5702 20.9837C24.3907 20.6957 24.097 20.4941 23.7648 20.4241V20.4231Z" fill="#4280EB"/>
<path d="M58.4465 68.9422H37.6165C36.9234 68.9422 36.3628 69.5019 36.3628 70.196C36.3628 70.8901 36.9234 71.4497 37.6165 71.4497H58.4465C59.1397 71.4497 59.7003 70.8901 59.7003 70.196C59.7003 69.5019 59.1397 68.9422 58.4465 68.9422Z" fill="#4280EB"/>
<path d="M71.0573 51.2054C70.2327 51.2054 69.5636 50.5362 69.5636 49.7116V43.7894C69.5636 42.9648 70.2327 42.2956 71.0573 42.2956H79.9642C80.1706 43.5417 80.0371 44.8665 80.0813 51.2054H71.0573ZM40.6418 27.3994H45.5185V36.7881C45.5185 39.4377 43.3643 41.592 40.7147 41.592H33.2882L36.7595 30.2678C37.2847 28.5533 38.8456 27.4003 40.6418 27.4003V27.3994ZM43.0792 21.3168C43.0792 20.1562 44.0248 19.2116 45.1874 19.2116C46.3461 19.2116 47.2926 20.1553 47.2926 21.3168V24.8919H43.0792V21.3168ZM52.5342 56.5257H32.3551V45.2419C32.3551 44.8531 32.4156 44.4691 32.524 44.0985H40.7147C44.7458 44.0985 48.027 40.8182 48.027 36.7872V27.3984H48.5464H52.5342V56.5247V56.5257ZM72.504 33.4771H63.9649V31.7088C63.9649 31.0157 63.4042 30.455 62.7111 30.455C62.017 30.455 61.4564 31.0157 61.4564 31.7088V56.8281H55.0427V26.1456C55.0427 25.4516 54.482 24.8919 53.7889 24.8919H49.8011V21.3168C49.8011 18.7738 47.7304 16.7031 45.1874 16.7031C42.6414 16.7031 40.5707 18.7738 40.5707 21.3168V24.8976C37.6984 24.9274 35.2063 26.7802 34.3605 29.5325L30.1385 43.3132C29.9484 43.9391 29.8476 44.5862 29.8476 45.2419V56.8281H12.3094C11.6153 56.8281 11.0557 57.3887 11.0557 58.0818V66.7218C11.0557 69.3282 13.1821 71.4507 15.7971 71.4507H16.0851C16.7782 71.4507 17.3388 70.8901 17.3388 70.196C17.3388 69.5029 16.7782 68.9422 16.0851 68.9422H15.7971C14.5654 68.9422 13.5632 67.9467 13.5632 66.7218V59.3365H62.7111C63.4042 59.3365 63.9649 58.7768 63.9649 58.0828V35.9865H72.504C75.2295 35.9865 77.7072 37.4966 79.0426 39.7891H71.0564C68.8503 39.7891 67.0551 41.5843 67.0551 43.7903V49.7126C67.0551 51.9186 68.8503 53.7148 71.0564 53.7148H80.0803V66.7227C80.0803 67.4005 79.7731 68.037 79.2394 68.469C78.7008 68.9067 78.6173 69.6958 79.055 70.2344C79.4899 70.7701 80.279 70.8545 80.8176 70.4168C81.9437 69.5048 82.5878 68.1589 82.5878 66.7227C82.5878 64.3563 82.5859 75.2974 82.5936 43.5734C82.5936 37.8825 77.9069 33.4781 72.505 33.4781L72.504 33.4771Z" fill="#4280EB"/>
<path d="M5.69875 37.7136C4.77619 35.9673 4.59091 33.9686 5.17363 32.0832C5.63347 30.6086 6.52338 29.3376 7.72818 28.416L12.9045 38.2425C13.013 38.446 13.1714 38.615 13.3701 38.7341L17.4856 41.1907C12.2632 43.2009 7.9461 41.9712 5.69875 37.7136ZM20.7601 42.4473C21.1633 42.2342 21.4187 41.8243 21.4321 41.3702C21.4427 40.918 21.2084 40.4937 20.8196 40.2595L14.9579 36.7584L9.31313 26.0467C8.99153 25.4343 8.23025 25.1981 7.61874 25.5187C5.28115 26.7514 3.56276 28.8183 2.7794 31.343C1.99604 33.8678 2.24372 36.5472 3.47828 38.8838C5.48659 42.6902 8.80721 44.6543 12.82 44.6543C15.2574 44.6543 17.9531 43.9276 20.7601 42.4483V42.4473Z" fill="#4280EB"/>
<path d="M26.8531 73.7643C24.3532 73.7643 22.3152 71.7291 22.3152 69.2264C22.3152 66.7266 24.3532 64.6895 26.8531 64.6895C29.3548 64.6895 31.39 66.7266 31.39 69.2264C31.39 71.7291 29.3548 73.7643 26.8531 73.7643ZM26.8531 62.1819C22.968 62.1819 19.8096 65.3432 19.8096 69.2274C19.8096 73.1115 22.968 76.2728 26.8531 76.2728C30.7372 76.2728 33.8985 73.1115 33.8985 69.2274C33.8985 65.3432 30.7372 62.1819 26.8531 62.1819Z" fill="#4280EB"/>
<path d="M69.2187 73.7643C66.7189 73.7643 64.6818 71.7291 64.6818 69.2264C64.6818 66.7266 66.7189 64.6895 69.2187 64.6895C71.7215 64.6895 73.7566 66.7266 73.7566 69.2264C73.7566 71.7291 71.7215 73.7643 69.2187 73.7643ZM69.2187 62.1819C65.3346 62.1819 62.1733 65.3432 62.1733 69.2274C62.1733 73.1115 65.3346 76.2728 69.2187 76.2728C73.1039 76.2728 76.2642 73.1115 76.2642 69.2274C76.2642 65.3432 73.1029 62.1819 69.2187 62.1819Z" fill="#4280EB"/>
</svg>
