<svg width="86" height="86" viewBox="0 0 86 86" fill="none" xmlns="http://www.w3.org/2000/svg">
<path d="M42.4613 12.5386C41.5196 12.5386 40.7583 11.7745 40.7583 10.8356V4.02061C40.7583 3.08077 41.5196 2.31757 42.4613 2.31757C43.4031 2.31757 44.1644 3.08173 44.1644 4.02061V10.8356C44.1644 11.7745 43.4031 12.5386 42.4613 12.5386Z" fill="#4280EB"/>
<path d="M65.3495 22.0157C64.9137 22.0157 64.4769 21.8487 64.1437 21.5184C63.4794 20.8541 63.4794 19.7732 64.1437 19.1089L68.962 14.2906C69.6253 13.6273 70.7044 13.6273 71.3687 14.2906C72.0349 14.9569 72.0349 16.0369 71.3687 16.7002L66.5533 21.5184C66.2231 21.8487 65.7863 22.0157 65.3495 22.0157Z" fill="#4280EB"/>
<path d="M81.6406 44.9039H74.8256C73.8867 44.9039 73.1226 44.1398 73.1226 43.2009C73.1226 42.2592 73.8867 41.4979 74.8256 41.4979H81.6406C82.5824 41.4979 83.3436 42.2592 83.3436 43.2009C83.3436 44.1407 82.5814 44.9039 81.6406 44.9039Z" fill="#4280EB"/>
<path d="M70.1667 72.6094C69.7299 72.6094 69.2941 72.4424 68.96 72.1112L64.1418 67.293C63.4775 66.6286 63.4775 65.5506 64.1418 64.8843C64.808 64.221 65.8871 64.221 66.5504 64.8843L71.3686 69.7025C72.032 70.3659 72.032 71.4478 71.3686 72.1112C71.0384 72.4414 70.6016 72.6094 70.1658 72.6094H70.1667Z" fill="#4280EB"/>
<path d="M42.4613 84.0823C41.5196 84.0823 40.7583 83.3182 40.7583 82.3793V75.5643C40.7583 74.6254 41.5196 73.8613 42.4613 73.8613C43.4031 73.8613 44.1644 74.6254 44.1644 75.5643V82.3793C44.1644 83.3182 43.4031 84.0823 42.4613 84.0823Z" fill="#4280EB"/>
<path d="M14.757 72.6094C14.3211 72.6094 13.8843 72.4424 13.5512 72.1112C12.8879 71.4478 12.8879 70.3659 13.5512 69.7025L18.3694 64.8843C19.0328 64.221 20.1128 64.221 20.7762 64.8843C21.4424 65.5506 21.4424 66.6296 20.7762 67.293L15.9608 72.1112C15.6306 72.4414 15.1938 72.6094 14.757 72.6094Z" fill="#4280EB"/>
<path d="M10.0962 44.9039H3.28116C2.34132 44.9039 1.57812 44.1398 1.57812 43.2009C1.57812 42.2592 2.34228 41.4979 3.28116 41.4979H10.0962C11.0379 41.4979 11.7992 42.2592 11.7992 43.2009C11.7992 44.1407 11.0379 44.9039 10.0962 44.9039Z" fill="#4280EB"/>
<path d="M19.575 22.0157C19.1372 22.0157 18.7014 21.8487 18.3683 21.5184L13.5549 16.7002C12.8886 16.0369 12.8886 14.9569 13.5549 14.2906C14.2192 13.6273 15.2972 13.6273 15.9616 14.2906L20.7798 19.1089C21.4441 19.7732 21.4441 20.8541 20.7798 21.5184C20.4467 21.8487 20.0108 22.0157 19.574 22.0157H19.575Z" fill="#4280EB"/>
<path d="M30.5382 43.2H40.7583C41.2527 43.2 41.7164 43.414 42.039 43.7817C42.3644 44.1465 42.5122 44.6409 42.4489 45.1276L40.2639 61.6108L54.6312 39.7939H44.1644C43.6652 39.7939 43.191 39.574 42.8636 39.191C42.5401 38.807 42.3999 38.3001 42.4854 37.8105L44.7442 24.2573L30.5382 43.2ZM37.6009 70.4542C37.4003 70.4542 37.2025 70.4197 37.0038 70.3486C36.2579 70.0702 35.8057 69.3138 35.9123 68.5294L38.8182 46.606H27.1322C26.487 46.606 25.8966 46.2412 25.6086 45.6671C25.3178 45.0902 25.3811 44.398 25.767 43.8825L46.2082 16.6254C46.6825 15.9937 47.5234 15.7681 48.2425 16.0801C48.9644 16.3892 49.3849 17.1514 49.2553 17.9261L46.1746 36.3849H57.7925C58.4194 36.3849 58.9954 36.7315 59.292 37.2816C59.5877 37.8345 59.5589 38.5008 59.2171 39.0288L39.0236 69.692C38.7011 70.1787 38.1596 70.4533 37.6009 70.4533V70.4542Z" fill="#4280EB"/>
</svg>
